<svg width="764" height="161" viewBox="0 0 764 161" fill="none" xmlns="http://www.w3.org/2000/svg">
<path d="M730.6 63.2381L743.1 33.912L732.108 32.8338V2.6451H763.898V29.2758L742.238 63.2381H730.6Z" fill="#62748E"/>
<path d="M121.809 158.551H89.1566L63.8322 98.4968H32.2576V158.551H0.898438V2.64773H66.634C79.0628 2.64773 89.2284 4.62438 97.1311 8.57766C105.034 12.5309 110.853 18.0296 114.589 25.0736C118.325 32.0458 120.192 40.0961 120.192 49.2246C120.192 57.4186 118.899 64.3548 116.313 70.0332C113.798 75.6397 110.458 80.3117 106.291 84.0493C102.196 87.787 97.7058 90.8418 92.8205 93.2138L121.809 158.551ZM61.0304 74.238C69.4359 74.238 76.0813 71.9739 80.9666 67.4456C85.9237 62.9173 88.4022 57.0952 88.4022 49.9793C88.4022 42.7915 86.0315 37.1132 81.2899 32.9442C76.5483 28.7753 70.5495 26.6909 63.2934 26.6909H32.2576V74.238H61.0304Z" fill="#62748E"/>
<path d="M271.019 99.1437C271.019 111.722 268.971 122.648 264.876 131.92C260.781 141.12 254.136 148.236 244.94 153.268C235.816 158.227 223.711 160.707 208.624 160.707C193.465 160.707 181.324 158.191 172.2 153.16C163.076 148.057 156.467 140.833 152.372 131.489C148.348 122.145 146.337 111.004 146.337 98.0655V2.64773H178.343V100.437C178.343 112.082 181.144 120.599 186.748 125.99C192.352 131.309 199.644 133.968 208.624 133.968C214.587 133.968 219.867 132.818 224.465 130.518C229.063 128.146 232.655 124.517 235.242 119.629C237.9 114.669 239.229 108.272 239.229 100.437V2.64773H271.019V99.1437Z" fill="#62748E"/>
<path d="M302.299 2.64773H408.338L408.23 28.955H333.981V68.0925H398.316V93.8607H333.981V158.551H302.299V2.64773Z" fill="#62748E"/>
<path d="M559.159 99.1437C559.159 111.722 557.112 122.648 553.017 131.92C548.922 141.12 542.277 148.236 533.081 153.268C523.957 158.227 511.851 160.707 496.765 160.707C481.606 160.707 469.465 158.191 460.341 153.16C451.217 148.057 444.607 140.833 440.512 131.489C436.489 122.145 434.477 111.004 434.477 98.0655V2.64773H466.483V100.437C466.483 112.082 469.285 120.599 474.889 125.99C480.492 131.309 487.784 133.968 496.765 133.968C502.727 133.968 508.008 132.818 512.606 130.518C517.204 128.146 520.796 124.517 523.382 119.629C526.04 114.669 527.369 108.272 527.369 100.437V2.64773H559.159V99.1437Z" fill="#62748E"/>
<path d="M648.955 160.707C641.268 160.707 633.724 159.737 626.325 157.796C618.925 155.855 612.172 152.944 606.065 149.063C599.959 145.181 594.894 140.33 590.871 134.508C586.919 128.685 584.548 121.857 583.758 114.022H615.979C617.057 118.766 619.105 122.756 622.122 125.99C625.139 129.225 628.947 131.704 633.545 133.429C638.143 135.154 643.244 136.017 648.847 136.017C654.595 136.017 659.839 135.298 664.581 133.861C669.322 132.423 673.13 130.267 676.004 127.392C678.877 124.445 680.314 120.779 680.314 116.394C680.314 112.441 679.129 109.207 676.758 106.691C674.459 104.175 671.334 102.127 667.382 100.545C663.431 98.964 658.941 97.6702 653.912 96.6639L626.971 91.1653C615.189 88.937 605.85 84.265 598.953 77.1491C592.056 69.9613 588.5 60.4016 588.284 48.4698C588.212 38.6945 590.799 30.2488 596.043 23.1329C601.359 15.9451 608.544 10.4105 617.596 6.52914C626.72 2.64774 636.921 0.707031 648.201 0.707031C661.635 0.707031 672.914 2.82743 682.038 7.06822C691.234 11.2371 698.203 16.9155 702.944 24.1033C707.758 31.2192 710.236 39.1617 710.38 47.9308H678.805C678.231 42.468 676.578 38.1194 673.848 34.8849C671.118 31.6504 667.598 29.3144 663.287 27.8769C659.049 26.4393 654.199 25.7205 648.739 25.7205C644.573 25.7205 640.765 26.1877 637.317 27.1221C633.94 28.0565 631.066 29.3863 628.695 31.1113C626.325 32.7645 624.493 34.7412 623.2 37.0413C621.906 39.3414 621.26 41.929 621.26 44.8041C621.26 49.3324 622.768 52.9981 625.786 55.8014C628.803 58.6046 634.443 60.9047 642.705 62.7016L669.43 68.2003C678.985 70.0691 686.564 72.8364 692.168 76.5022C697.844 80.168 702.082 84.3009 704.884 88.9011C707.758 93.5013 709.626 98.2093 710.488 103.025C711.422 107.769 711.889 112.154 711.889 116.179C711.889 124.588 709.231 132.172 703.914 138.928C698.67 145.613 691.342 150.932 681.931 154.885C672.519 158.766 661.527 160.707 648.955 160.707Z" fill="#62748E"/>
</svg>
