<svg width="1257" height="161" viewBox="0 0 1257 161" fill="none" xmlns="http://www.w3.org/2000/svg">
<path d="M792.692 160.707C793.394 130.833 807.306 100.632 832.44 74.8256C818.28 73.0694 804.591 66.7565 793.817 55.8509L812.01 37.9383C827.561 53.6782 853.028 53.8532 868.802 38.3366L888.392 58.1624C872.623 73.679 872.448 99.1114 887.993 114.851L869.8 132.758C858.59 121.412 852.393 106.981 851.153 92.2192C832.392 111.345 824.429 127.73 818.588 160.701H792.704L792.692 160.707Z" fill="#62748E"/>
<path d="M840.542 33.5145C849.618 33.5145 856.976 26.1703 856.976 17.1108C856.976 8.05124 849.618 0.707031 840.542 0.707031C831.466 0.707031 824.108 8.05124 824.108 17.1108C824.108 26.1703 831.466 33.5145 840.542 33.5145Z" fill="#62748E"/>
<path d="M58.6177 55.8328C63.624 58.4822 67.548 62.4534 70.4019 67.7463C73.2557 73.0452 74.6826 79.4848 74.6826 87.0772V135.48H61.1692V89.0265C61.1692 80.8367 59.1196 74.5661 55.0142 70.2208C50.9088 65.8754 45.3039 63.7027 38.1996 63.7027C31.0952 63.7027 25.2606 65.9478 21.0101 70.4441C16.7535 74.9403 14.6313 81.4825 14.6313 90.0767V135.48H0.966797V24.5884H14.6253V65.0486C17.3279 60.8541 21.0524 57.6071 25.8108 55.3077C30.5632 53.0083 35.8899 51.8616 41.7971 51.8616C48.0005 51.8616 53.6054 53.1893 58.6117 55.8328H58.6177Z" fill="#62748E"/>
<path d="M111.982 131.581C105.724 128.087 100.82 123.114 97.2714 116.668C93.7162 110.222 91.9446 102.757 91.9446 94.2651C91.9446 85.7736 93.7706 78.4528 97.4225 72.0132C101.074 65.5676 106.057 60.6248 112.363 57.1786C118.669 53.7325 125.725 52.0065 133.531 52.0065C141.336 52.0065 148.392 53.7325 154.699 57.1786C161.005 60.6248 165.981 65.5495 169.639 71.9408C173.291 78.3382 175.117 85.7796 175.117 94.2712C175.117 102.763 173.242 110.228 169.488 116.674C165.733 123.12 160.654 128.087 154.251 131.587C147.842 135.087 140.738 136.832 132.932 136.832C125.126 136.832 118.246 135.087 111.988 131.587L111.982 131.581ZM146.742 121.393C151.047 119.094 154.523 115.648 157.178 111.055C159.826 106.462 161.156 100.868 161.156 94.2712C161.156 87.6747 159.856 82.086 157.25 77.4872C154.644 72.8944 151.246 69.4724 147.044 67.2213C142.842 64.9762 138.283 63.8476 133.386 63.8476C128.488 63.8476 123.802 64.9701 119.649 67.2213C115.495 69.4664 112.163 72.8944 109.666 77.4872C107.163 82.086 105.911 87.6747 105.911 94.2712C105.911 100.868 107.139 106.613 109.588 111.206C112.036 115.805 115.313 119.221 119.419 121.472C123.524 123.717 128.023 124.846 132.932 124.846C137.842 124.846 142.437 123.699 146.742 121.4V121.393Z" fill="#62748E"/>
<path d="M193.129 72.0132C196.533 65.6702 201.261 60.7515 207.313 57.2511C213.365 53.7567 220.3 52.0065 228.106 52.0065C238.215 52.0065 246.547 54.4568 253.101 59.3513C259.655 64.2459 263.984 71.0416 266.089 79.7323H251.378C249.975 74.7351 247.248 70.7941 243.197 67.8912C239.146 64.9943 234.116 63.5458 228.112 63.5458C220.306 63.5458 214 66.2194 209.193 71.5606C204.387 76.9078 201.986 84.476 201.986 94.2651C201.986 104.054 204.387 111.797 209.193 117.193C214 122.588 220.3 125.286 228.112 125.286C234.116 125.286 239.122 123.886 243.125 121.092C247.128 118.297 249.879 114.302 251.384 109.106H266.095C263.894 117.495 259.486 124.218 252.884 129.263C246.281 134.309 238.022 136.832 228.112 136.832C220.306 136.832 213.371 135.087 207.319 131.587C201.261 128.093 196.533 123.144 193.135 116.752C189.731 110.361 188.032 102.865 188.032 94.2772C188.032 85.6891 189.731 78.3683 193.135 72.0253L193.129 72.0132Z" fill="#62748E"/>
<path d="M341.902 55.8328C346.909 58.4822 350.833 62.4534 353.686 67.7463C356.54 73.0452 357.967 79.4848 357.967 87.0772V135.48H344.454V89.0265C344.454 80.8367 342.404 74.5661 338.299 70.2208C334.193 65.8754 328.589 63.7027 321.484 63.7027C314.38 63.7027 308.545 65.9478 304.295 70.4441C300.038 74.9403 297.916 81.4825 297.916 90.0767V135.48H284.258V24.5884H297.916V65.0486C300.619 60.8541 304.343 57.6071 309.102 55.3077C313.854 53.0083 319.181 51.8616 325.088 51.8616C331.291 51.8616 336.896 53.1893 341.902 55.8328Z" fill="#62748E"/>
<path d="M392.491 133.603C387.485 131.454 383.531 128.461 380.629 124.61C377.726 120.766 376.124 116.342 375.822 111.351H389.934C390.333 115.449 392.262 118.792 395.714 121.393C399.166 123.995 403.695 125.292 409.3 125.292C414.506 125.292 418.605 124.146 421.61 121.846C424.615 119.547 426.114 116.65 426.114 113.155C426.114 109.661 424.512 106.885 421.308 105.141C418.103 103.396 413.151 101.67 406.446 99.9684C400.339 98.3691 395.357 96.7456 391.506 95.098C387.654 93.4504 384.347 91.0001 381.596 87.7531C378.845 84.5062 377.466 80.2392 377.466 74.9403C377.466 70.7458 378.718 66.9014 381.221 63.401C383.724 59.9066 387.273 57.1304 391.881 55.0844C396.482 53.0385 401.736 52.0125 407.643 52.0125C416.749 52.0125 424.107 54.3119 429.712 58.9047C435.317 63.5036 438.316 69.7923 438.721 77.7829H425.062C424.76 73.4858 423.037 70.0397 419.881 67.4446C416.731 64.8494 412.498 63.5458 407.196 63.5458C402.292 63.5458 398.386 64.5959 395.484 66.6902C392.582 68.7904 391.131 71.5364 391.131 74.9343C391.131 77.632 392.008 79.859 393.761 81.6032C395.508 83.3534 397.715 84.7476 400.363 85.7977C403.012 86.8478 406.694 88.0247 411.398 89.3223C417.299 90.9216 422.106 92.4968 425.812 94.0418C429.512 95.5929 432.693 97.9164 435.347 101.013C437.995 104.109 439.374 108.158 439.477 113.149C439.477 117.646 438.225 121.689 435.722 125.286C433.219 128.883 429.694 131.708 425.141 133.754C420.588 135.8 415.358 136.826 409.451 136.826C403.145 136.826 397.492 135.751 392.485 133.603H392.491Z" fill="#62748E"/>
<path d="M458.698 72.0132C462.102 65.6702 466.83 60.7515 472.882 57.2511C478.934 53.7567 485.87 52.0065 493.675 52.0065C503.785 52.0065 512.116 54.4568 518.67 59.3513C525.225 64.2459 529.554 71.0416 531.658 79.7323H516.947C515.544 74.7351 512.818 70.7941 508.767 67.8912C504.716 64.9943 499.685 63.5458 493.681 63.5458C485.876 63.5458 479.569 66.2194 474.763 71.5606C469.956 76.9078 467.555 84.476 467.555 94.2651C467.555 104.054 469.956 111.797 474.763 117.193C479.569 122.588 485.869 125.286 493.681 125.286C499.685 125.286 504.691 123.886 508.694 121.092C512.697 118.297 515.448 114.302 516.953 109.106H531.664C529.463 117.495 525.055 124.218 518.453 129.263C511.85 134.309 503.591 136.832 493.681 136.832C485.876 136.832 478.941 135.087 472.888 131.587C466.83 128.093 462.102 123.144 458.704 116.752C455.3 110.361 453.601 102.865 453.601 94.2772C453.601 85.6891 455.3 78.3683 458.704 72.0253L458.698 72.0132Z" fill="#62748E"/>
<path d="M607.472 55.8328C612.478 58.4822 616.402 62.4534 619.256 67.7463C622.11 73.0452 623.536 79.4848 623.536 87.0772V135.48H610.023V89.0265C610.023 80.8367 607.973 74.5661 603.868 70.2208C599.763 65.8754 594.158 63.7027 587.053 63.7027C579.949 63.7027 574.114 65.9478 569.864 70.4441C565.607 74.9403 563.485 81.4825 563.485 90.0767V135.48H549.827V24.5884H563.485V65.0486C566.188 60.8541 569.912 57.6071 574.671 55.3077C579.423 53.0083 584.75 51.8616 590.657 51.8616C596.86 51.8616 602.465 53.1893 607.472 55.8328Z" fill="#62748E"/>
<path d="M718.867 53.3583V135.48H705.209V123.343C702.603 127.537 698.981 130.814 694.326 133.156C689.67 135.504 684.543 136.681 678.938 136.681C672.529 136.681 666.779 135.359 661.676 132.71C656.573 130.066 652.54 126.095 649.59 120.796C646.639 115.503 645.164 109.057 645.164 101.465V53.3643H658.677V99.6666C658.677 107.76 660.727 113.976 664.832 118.322C668.938 122.667 674.536 124.84 681.647 124.84C688.757 124.84 694.707 122.594 698.909 118.098C703.111 113.602 705.215 107.06 705.215 98.4656V53.3583H718.874H718.867Z" fill="#62748E"/>
<path d="M755.647 24.5884V135.48H741.988V24.5884H755.647Z" fill="#62748E"/>
<path d="M940.432 129.559C935.426 127.411 931.472 124.417 928.569 120.567C925.667 116.722 924.065 112.298 923.763 107.307H937.874C938.274 111.405 940.202 114.749 943.655 117.35C947.107 119.951 951.636 121.249 957.241 121.249C962.446 121.249 966.546 120.102 969.551 117.803C972.556 115.503 974.055 112.606 974.055 109.112C974.055 105.617 972.453 102.841 969.248 101.097C966.044 99.3528 961.092 97.6267 954.387 95.9248C948.28 94.3255 943.298 92.702 939.447 91.0544C935.595 89.4067 932.288 86.9564 929.537 83.7095C926.786 80.4625 925.407 76.1956 925.407 70.8967C925.407 66.7022 926.659 62.8578 929.162 59.3573C931.665 55.8629 935.214 53.0867 939.821 51.0408C944.423 48.9948 949.677 47.9689 955.584 47.9689C964.69 47.9689 972.048 50.2683 977.653 54.8611C983.258 59.4599 986.257 65.7486 986.662 73.7393H973.003C972.701 69.4422 970.978 65.9961 967.822 63.4009C964.671 60.8058 960.439 59.5022 955.136 59.5022C950.233 59.5022 946.327 60.5523 943.425 62.6465C940.523 64.7468 939.072 67.4928 939.072 70.8907C939.072 73.5884 939.948 75.8154 941.702 77.5596C943.449 79.3098 945.656 80.7039 948.304 81.7541C950.952 82.8042 954.635 83.9811 959.339 85.2787C965.24 86.878 970.047 88.4532 973.753 89.9982C977.453 91.5493 980.634 93.8728 983.288 96.9689C985.936 100.065 987.315 104.115 987.417 109.106C987.417 113.602 986.166 117.646 983.663 121.243C981.16 124.84 977.635 127.664 973.082 129.71C968.529 131.756 963.299 132.782 957.392 132.782C951.085 132.782 945.432 131.708 940.426 129.559H940.432Z" fill="#62748E"/>
<path d="M1023.3 60.5523V108.955C1023.3 112.95 1024.15 115.775 1025.85 117.422C1027.55 119.07 1030.51 119.897 1034.71 119.897H1044.77V131.436H1032.46C1024.86 131.436 1019.15 129.692 1015.35 126.191C1011.54 122.697 1009.64 116.952 1009.64 108.961V60.5584H998.978V49.3208H1009.64V28.6441H1023.3V49.3208H1044.77V60.5584H1023.3L1023.3 60.5523Z" fill="#62748E"/>
<path d="M1061.28 67.9696C1064.69 61.6266 1069.37 56.7079 1075.32 53.2074C1081.28 49.713 1087.91 47.9628 1095.22 47.9628C1102.53 47.9628 1108.67 49.5139 1113.98 52.61C1119.29 55.706 1123.24 59.6048 1125.85 64.3002V49.3147H1139.66V131.436H1125.85V116.149C1123.14 120.947 1119.12 124.918 1113.76 128.062C1108.4 131.207 1102.18 132.782 1095.07 132.782C1087.97 132.782 1081.16 130.983 1075.25 127.386C1069.34 123.789 1064.69 118.744 1061.29 112.25C1057.89 105.756 1056.19 98.363 1056.19 90.0706C1056.19 81.7782 1057.89 74.3126 1061.29 67.9696H1061.28ZM1122.09 74.0411C1119.58 69.4482 1116.2 65.9237 1111.95 63.4794C1107.7 61.0351 1103.02 59.81 1097.91 59.81C1092.8 59.81 1088.15 61.011 1083.95 63.407C1079.75 65.803 1076.39 69.3034 1073.89 73.8962C1071.39 78.4951 1070.14 83.8845 1070.14 90.0827C1070.14 96.2809 1071.39 101.845 1073.89 106.492C1076.39 111.14 1079.74 114.682 1083.95 117.133C1088.15 119.583 1092.81 120.802 1097.91 120.802C1103.02 120.802 1107.7 119.577 1111.95 117.133C1116.2 114.688 1119.58 111.14 1122.09 106.492C1124.59 101.845 1125.84 96.4318 1125.84 90.2336C1125.84 84.0354 1124.59 78.6459 1122.09 74.0471V74.0411Z" fill="#62748E"/>
<path d="M1186.71 51.7107C1191.16 49.1156 1196.59 47.812 1203 47.812V61.8982H1199.4C1184.08 61.8982 1176.43 70.1906 1176.43 86.7754V131.43H1162.77V49.3147H1176.43V62.6526C1178.83 57.9572 1182.26 54.3119 1186.71 51.7107Z" fill="#62748E"/>
<path d="M1235.43 60.5523V108.955C1235.43 112.95 1236.27 115.775 1237.98 117.422C1239.68 119.07 1242.64 119.897 1246.84 119.897H1256.9V131.436H1244.59C1236.98 131.436 1231.27 129.692 1227.47 126.191C1223.67 122.697 1221.76 116.952 1221.76 108.961V60.5584H1211.1V49.3208H1221.76V28.6441H1235.42V49.3208H1256.89V60.5584H1235.42L1235.43 60.5523Z" fill="#62748E"/>
</svg>
