<svg width="1013" height="161" viewBox="0 0 1013 161" fill="none" xmlns="http://www.w3.org/2000/svg">
<path d="M88.3341 75.9977C88.3341 73.6447 87.325 71.6278 85.3068 69.9471C83.4007 68.2663 81.1021 67.4259 78.4112 67.4259C73.0292 67.4259 68.6003 70.5073 65.1245 76.67C61.6486 82.7207 59.9107 89.6117 59.9107 97.3431C59.9107 103.282 61.0319 108.66 63.2744 113.478C65.5169 118.184 68.7685 121.938 73.0292 124.739C77.2899 127.54 82.2234 128.941 87.8296 128.941C91.9782 128.941 95.9586 128.157 99.7708 126.588C103.583 124.907 106.666 123.114 109.021 121.21C111.376 119.193 113.786 117.4 116.253 115.831C118.832 114.151 121.074 113.31 122.98 113.31C125.447 113.31 127.578 114.319 129.372 116.335C131.166 118.24 132.062 120.257 132.062 122.386C132.062 124.739 131.334 127.484 129.876 130.622C128.531 133.759 126.344 137.121 123.317 140.706C120.289 144.18 116.758 147.429 112.721 150.455C108.685 153.368 103.639 155.833 97.5844 157.85C91.6418 159.755 85.3628 160.707 78.7475 160.707C70.0019 160.707 61.8729 159.418 54.3606 156.841C46.9604 154.152 40.5132 150.398 35.0192 145.58C29.5251 140.65 25.2083 134.487 22.0688 127.092C18.9294 119.697 17.3596 111.405 17.3596 102.217C17.3596 84.0653 22.7977 69.723 33.6737 59.1903C44.5497 48.6577 58.7895 43.3914 76.3929 43.3914C85.3628 43.3914 93.66 44.904 101.284 47.9294C108.909 50.9547 114.964 55.1565 119.449 60.5349C123.933 65.9133 126.176 71.7959 126.176 78.1827C126.176 85.5779 123.709 92.3009 118.776 98.3516C113.842 104.29 107.451 107.259 99.6026 107.259C95.1176 107.259 91.0812 106.027 87.4932 103.562C83.9052 101.097 82.1112 97.5672 82.1112 92.9732C82.1112 90.8443 83.1204 87.875 85.1386 84.0653C87.269 80.2556 88.3341 77.5664 88.3341 75.9977Z" fill="#62748E"/>
<path d="M30.496 39.7508C30.496 50.0801 23.8703 58.4537 15.6972 58.4537C7.52407 58.4537 0.898438 50.0801 0.898438 39.7508C0.898437 29.4215 7.52407 21.0479 15.6972 21.0479C23.8703 21.0479 30.496 29.4215 30.496 39.7508Z" fill="#62748E"/>
<path d="M148.061 39.7508C148.061 50.0801 141.435 58.4537 133.262 58.4537C125.089 58.4537 118.464 50.0801 118.464 39.7508C118.464 29.4215 125.089 21.0479 133.262 21.0479C141.435 21.0479 148.061 29.4215 148.061 39.7508Z" fill="#62748E"/>
<path d="M107.777 19.4099C107.777 29.7393 101.152 38.1129 92.9784 38.1129C84.8053 38.1129 78.1796 29.7393 78.1796 19.4099C78.1796 9.08061 84.8053 0.707031 92.9784 0.707031C101.152 0.707031 107.777 9.08061 107.777 19.4099Z" fill="#62748E"/>
<path d="M67.7178 19.4099C67.7178 29.7393 61.0921 38.1129 52.919 38.1129C44.7459 38.1129 38.1202 29.7393 38.1202 19.4099C38.1202 9.08061 44.7459 0.707031 52.919 0.707031C61.0921 0.707031 67.7178 9.08061 67.7178 19.4099Z" fill="#62748E"/>
<path d="M172.028 157.59C163.282 157.59 156.106 155.63 150.5 151.708C144.894 147.674 142.09 141.903 142.09 134.396C142.09 127.897 144.95 122.743 150.668 118.933C156.386 115.124 163.506 113.219 172.028 113.219C175.167 113.219 178.082 113.499 180.773 114.059C183.576 114.507 185.482 115.068 186.492 115.74C186.492 112.939 185.314 110.642 182.96 108.849C180.605 106.944 177.017 105.992 172.196 105.992C170.065 105.992 168.327 106.16 166.982 106.496C165.637 106.832 164.179 107.336 162.609 108.009C161.039 108.681 159.582 109.185 158.236 109.521C157.003 109.857 155.321 110.025 153.191 110.025C149.603 110.025 146.8 109.129 144.781 107.336C142.763 105.431 141.754 102.574 141.754 98.7645C141.754 94.3946 143.324 90.6969 146.463 87.6716C149.715 84.6463 153.751 82.4053 158.573 80.9486C163.394 79.3799 168.215 78.5956 173.037 78.5956C182.567 78.5956 190.528 80.3884 196.919 83.974C203.422 87.4475 208.188 92.0975 211.215 97.9241C214.354 103.751 215.924 110.194 215.924 117.253C215.924 121.062 215.588 124.592 214.915 127.841C214.354 131.091 213.57 133.612 212.56 135.405C214.13 136.749 215.307 138.318 216.092 140.111C216.989 141.903 217.438 143.752 217.438 145.657C217.438 148.907 216.317 151.708 214.074 154.061C211.944 156.414 209.085 157.59 205.497 157.59C202.806 157.59 200.619 157.198 198.937 156.414C197.255 155.63 195.462 154.397 193.555 152.716C190.752 154.397 187.669 155.63 184.305 156.414C181.054 157.198 176.961 157.59 172.028 157.59ZM175.391 140.615C177.746 140.615 179.596 140.111 180.941 139.102C182.399 138.094 183.128 136.861 183.128 135.405C183.128 133.948 182.399 132.715 180.941 131.707C179.596 130.699 177.746 130.194 175.391 130.194C173.037 130.194 171.131 130.699 169.673 131.707C168.327 132.715 167.655 133.948 167.655 135.405C167.655 136.861 168.327 138.094 169.673 139.102C171.131 140.111 173.037 140.615 175.391 140.615Z" fill="#62748E"/>
<path d="M243.882 157.59C236.706 157.59 231.885 153.389 229.418 144.985C227.064 136.581 225.887 124.984 225.887 110.194C225.887 103.471 226.167 97.8681 226.727 93.3861C227.4 88.7921 228.914 84.9264 231.268 81.789C233.735 78.5396 237.491 76.9149 242.537 76.9149C245.676 76.9149 248.423 77.6432 250.778 79.0998C253.245 80.5565 254.814 82.6294 255.487 85.3186C257.954 83.0776 261.15 81.3968 265.074 80.2763C268.998 79.1558 273.203 78.5956 277.688 78.5956C281.276 78.5956 284.92 79.492 288.62 81.2848C292.432 83.0776 295.572 85.5427 298.038 88.68C300.617 91.7054 301.907 95.0108 301.907 98.5964C301.907 102.182 300.617 105.375 298.038 108.177C295.572 110.866 292.264 112.21 288.115 112.21C286.77 112.21 285.48 112.042 284.247 111.706C283.126 111.37 282.117 111.034 281.22 110.698C278.977 109.801 277.183 109.353 275.838 109.353C271.465 109.353 267.597 111.09 264.233 114.563C260.981 117.925 259.356 122.295 259.356 127.673C259.356 133.612 259.131 138.542 258.683 142.464C258.234 146.385 256.889 149.915 254.646 153.052C252.404 156.078 248.816 157.59 243.882 157.59Z" fill="#62748E"/>
<path d="M345.828 157.59C337.531 157.59 330.187 155.966 323.796 152.716C317.405 149.467 312.415 144.929 308.827 139.102C305.351 133.164 303.613 126.497 303.613 119.101C303.613 111.818 305.351 105.095 308.827 98.9326C312.415 92.7698 317.349 87.8397 323.628 84.142C329.906 80.4444 337.026 78.5956 344.987 78.5956C352.163 78.5956 358.498 80.0522 363.992 82.9655C369.486 85.8788 373.691 89.7445 376.606 94.5626C379.521 99.2687 380.979 104.199 380.979 109.353C380.979 117.757 377.783 123.92 371.392 127.841C365.113 131.651 357.601 133.556 348.855 133.556C343.025 133.556 338.092 132.827 334.055 131.371C337.419 136.861 342.969 139.606 350.705 139.606C353.845 139.606 357.209 139.214 360.797 138.43C362.142 138.094 363.432 137.926 364.665 137.926C367.132 137.926 369.094 138.542 370.551 139.775C372.121 141.007 372.906 142.688 372.906 144.817C372.906 148.29 370.776 151.316 366.515 153.893C362.254 156.358 355.359 157.59 345.828 157.59ZM334.56 110.866C335.569 112.435 336.914 113.611 338.596 114.395C340.39 115.068 342.352 115.404 344.483 115.404C346.949 115.404 349.08 114.844 350.874 113.723C352.78 112.603 353.733 111.146 353.733 109.353C353.733 107.336 352.892 105.599 351.21 104.143C349.64 102.686 347.342 101.958 344.314 101.958C341.287 101.958 338.876 102.91 337.082 104.815C335.401 106.608 334.56 108.625 334.56 110.866Z" fill="#62748E"/>
<path d="M429.96 157.59C421.663 157.59 414.319 155.966 407.928 152.716C401.537 149.467 396.548 144.929 392.96 139.102C389.484 133.164 387.746 126.497 387.746 119.101C387.746 111.818 389.484 105.095 392.96 98.9326C396.548 92.7698 401.481 87.8397 407.76 84.142C414.039 80.4444 421.159 78.5956 429.12 78.5956C436.296 78.5956 442.631 80.0522 448.125 82.9655C453.619 85.8788 457.823 89.7445 460.739 94.5626C463.654 99.2687 465.111 104.199 465.111 109.353C465.111 117.757 461.916 123.92 455.525 127.841C449.246 131.651 441.734 133.556 432.988 133.556C427.157 133.556 422.224 132.827 418.187 131.371C421.551 136.861 427.101 139.606 434.838 139.606C437.977 139.606 441.341 139.214 444.929 138.43C446.275 138.094 447.564 137.926 448.797 137.926C451.264 137.926 453.226 138.542 454.684 139.775C456.254 141.007 457.038 142.688 457.038 144.817C457.038 148.29 454.908 151.316 450.647 153.893C446.387 156.358 439.491 157.59 429.96 157.59ZM418.692 110.866C419.701 112.435 421.047 113.611 422.729 114.395C424.522 115.068 426.485 115.404 428.615 115.404C431.082 115.404 433.212 114.844 435.006 113.723C436.912 112.603 437.865 111.146 437.865 109.353C437.865 107.336 437.024 105.599 435.342 104.143C433.773 102.686 431.474 101.958 428.447 101.958C425.419 101.958 423.009 102.91 421.215 104.815C419.533 106.608 418.692 108.625 418.692 110.866Z" fill="#62748E"/>
<path d="M491.517 157.59C484.341 157.59 479.519 153.389 477.053 144.985C474.698 136.581 473.521 124.984 473.521 110.194C473.521 103.471 473.801 97.8681 474.362 93.3861C475.034 88.7921 476.548 84.9264 478.903 81.789C481.369 78.5396 485.125 76.9149 490.171 76.9149C493.311 76.9149 496.058 77.6432 498.412 79.0998C500.879 80.5565 502.449 82.6294 503.121 85.3186C505.588 83.0776 508.784 81.3968 512.708 80.2763C516.632 79.1558 520.837 78.5956 525.322 78.5956C528.91 78.5956 532.554 79.492 536.254 81.2848C540.066 83.0776 543.206 85.5427 545.672 88.68C548.251 91.7054 549.541 95.0108 549.541 98.5964C549.541 102.182 548.251 105.375 545.672 108.177C543.206 110.866 539.898 112.21 535.749 112.21C534.404 112.21 533.115 112.042 531.881 111.706C530.76 111.37 529.751 111.034 528.854 110.698C526.611 109.801 524.817 109.353 523.472 109.353C519.099 109.353 515.231 111.09 511.867 114.563C508.615 117.925 506.99 122.295 506.99 127.673C506.99 133.612 506.765 138.542 506.317 142.464C505.868 146.385 504.523 149.915 502.28 153.052C500.038 156.078 496.45 157.59 491.517 157.59Z" fill="#62748E"/>
<path d="M583.338 157.758C574.144 157.758 567.865 152.492 564.501 141.959C561.25 131.427 559.624 117.981 559.624 101.622C559.624 90.9771 561.53 81.0047 565.342 71.7046C569.267 62.2924 575.209 54.7291 583.17 49.0146C591.131 43.188 600.83 40.2747 612.266 40.2747C621.46 40.2747 629.814 42.2356 637.326 46.1573C644.838 49.967 650.781 55.4574 655.154 62.6286C659.639 69.7997 661.881 78.0914 661.881 87.5035C661.881 98.3723 659.695 107.504 655.322 114.9C650.949 122.295 645.287 127.785 638.335 131.371C631.383 134.956 624.039 136.749 616.303 136.749C610.024 136.749 604.249 135.685 598.98 133.556C599.652 137.141 599.989 139.887 599.989 141.791C599.989 152.436 594.439 157.758 583.338 157.758ZM613.948 110.698C617.985 110.698 621.46 109.241 624.376 106.328C627.403 103.302 628.917 99.829 628.917 95.9072C628.917 91.8734 627.403 88.3999 624.376 85.4866C621.46 82.4613 617.985 80.9486 613.948 80.9486C610.024 80.9486 606.548 82.4613 603.521 85.4866C600.493 88.3999 598.98 91.8734 598.98 95.9072C598.98 99.829 600.493 103.302 603.521 106.328C606.548 109.241 610.024 110.698 613.948 110.698Z" fill="#62748E"/>
<path d="M698.995 157.59C690.249 157.59 683.073 155.63 677.467 151.708C671.861 147.674 669.058 141.903 669.058 134.396C669.058 127.897 671.917 122.743 677.635 118.933C683.354 115.124 690.474 113.219 698.995 113.219C702.134 113.219 705.05 113.499 707.741 114.059C710.544 114.507 712.45 115.068 713.459 115.74C713.459 112.939 712.282 110.642 709.927 108.849C707.572 106.944 703.985 105.992 699.163 105.992C697.033 105.992 695.295 106.16 693.949 106.496C692.604 106.832 691.146 107.336 689.577 108.009C688.007 108.681 686.549 109.185 685.204 109.521C683.97 109.857 682.289 110.025 680.158 110.025C676.57 110.025 673.767 109.129 671.749 107.336C669.731 105.431 668.722 102.574 668.722 98.7645C668.722 94.3946 670.291 90.6969 673.431 87.6716C676.682 84.6463 680.719 82.4053 685.54 80.9486C690.361 79.3799 695.183 78.5956 700.004 78.5956C709.535 78.5956 717.495 80.3884 723.887 83.974C730.39 87.4475 735.155 92.0975 738.182 97.9241C741.322 103.751 742.892 110.194 742.892 117.253C742.892 121.062 742.555 124.592 741.882 127.841C741.322 131.091 740.537 133.612 739.528 135.405C741.098 136.749 742.275 138.318 743.06 140.111C743.957 141.903 744.405 143.752 744.405 145.657C744.405 148.907 743.284 151.708 741.042 154.061C738.911 156.414 736.052 157.59 732.464 157.59C729.773 157.59 727.587 157.198 725.905 156.414C724.223 155.63 722.429 154.397 720.523 152.716C717.72 154.397 714.636 155.63 711.273 156.414C708.021 157.198 703.928 157.59 698.995 157.59ZM702.359 140.615C704.713 140.615 706.563 140.111 707.909 139.102C709.367 138.094 710.095 136.861 710.095 135.405C710.095 133.948 709.367 132.715 707.909 131.707C706.563 130.699 704.713 130.194 702.359 130.194C700.004 130.194 698.098 130.699 696.64 131.707C695.295 132.715 694.622 133.948 694.622 135.405C694.622 136.861 695.295 138.094 696.64 139.102C698.098 140.111 700.004 140.615 702.359 140.615Z" fill="#62748E"/>
<path d="M819.287 157.59C815.251 157.59 812.224 156.47 810.205 154.229C808.299 151.988 807.122 149.243 806.673 145.993C806.225 142.744 806.001 138.542 806.001 133.388C806.001 126.777 805.104 121.679 803.31 118.093C801.516 114.507 798.601 112.715 794.564 112.715C790.864 112.715 788.061 114.507 786.155 118.093C784.361 121.567 783.464 126.385 783.464 132.547C783.464 138.486 783.296 142.968 782.959 145.993C782.623 149.019 781.502 151.708 779.595 154.061C777.689 156.302 774.55 157.422 770.177 157.422C763.786 157.422 759.301 153.333 756.722 145.153C754.143 136.861 752.854 127.169 752.854 116.076C752.854 89.1843 758.516 75.7383 769.841 75.7383C772.98 75.7383 775.559 76.5227 777.577 78.0914C779.595 79.548 780.997 81.677 781.782 84.4782C783.24 82.9095 785.482 81.5089 788.509 80.2763C791.649 79.0438 794.956 78.4275 798.432 78.4275C810.766 78.4275 819.96 82.9095 826.015 91.8734C832.182 100.837 835.265 112.995 835.265 128.346C835.265 137.421 834.088 144.593 831.733 149.859C829.379 155.013 825.23 157.59 819.287 157.59Z" fill="#62748E"/>
<path d="M882.106 157.59C874.145 157.59 867.082 155.686 860.915 151.876C854.86 147.954 850.207 142.912 846.955 136.749C843.704 130.474 842.078 123.808 842.078 116.748C842.078 108.457 843.76 101.454 847.124 95.7391C850.599 89.9126 855.028 85.5987 860.41 82.7974C865.904 79.9962 871.791 78.5956 878.07 78.5956C884.349 78.5956 889.955 79.9402 894.888 82.6294C894.664 80.2763 894.216 77.7552 893.543 75.066C892.982 72.3769 892.59 70.6961 892.366 70.0238C891.469 66.5503 890.796 63.637 890.347 61.284C889.899 58.9309 889.675 56.5779 889.675 54.2249C889.675 49.5188 891.076 45.9332 893.879 43.4681C896.682 41.003 900.046 39.7705 903.97 39.7705C910.249 39.7705 915.351 42.9079 919.275 49.1826C923.2 55.4574 926.003 63.2448 927.685 72.5449C929.479 81.845 930.376 91.2572 930.376 100.781C930.376 113.667 927.404 126.385 921.462 138.934C915.631 151.372 902.513 157.59 882.106 157.59ZM883.115 131.035C886.143 131.035 888.778 129.914 891.02 127.673C893.263 125.32 894.384 122.575 894.384 119.438C894.384 116.3 893.263 113.555 891.02 111.202C888.778 108.849 886.143 107.672 883.115 107.672C880.088 107.672 877.397 108.849 875.042 111.202C872.8 113.555 871.679 116.3 871.679 119.438C871.679 122.575 872.8 125.32 875.042 127.673C877.397 129.914 880.088 131.035 883.115 131.035Z" fill="#62748E"/>
<path d="M967.488 157.59C958.743 157.59 951.567 155.63 945.96 151.708C940.354 147.674 937.551 141.903 937.551 134.396C937.551 127.897 940.41 122.743 946.129 118.933C951.847 115.124 958.967 113.219 967.488 113.219C970.628 113.219 973.543 113.499 976.234 114.059C979.037 114.507 980.943 115.068 981.952 115.74C981.952 112.939 980.775 110.642 978.42 108.849C976.066 106.944 972.478 105.992 967.656 105.992C965.526 105.992 963.788 106.16 962.443 106.496C961.097 106.832 959.639 107.336 958.07 108.009C956.5 108.681 955.042 109.185 953.697 109.521C952.464 109.857 950.782 110.025 948.651 110.025C945.063 110.025 942.26 109.129 940.242 107.336C938.224 105.431 937.215 102.574 937.215 98.7645C937.215 94.3946 938.784 90.6969 941.924 87.6716C945.176 84.6463 949.212 82.4053 954.033 80.9486C958.855 79.3799 963.676 78.5956 968.497 78.5956C978.028 78.5956 985.989 80.3884 992.38 83.974C998.883 87.4475 1003.65 92.0975 1006.68 97.9241C1009.81 103.751 1011.38 110.194 1011.38 117.253C1011.38 121.062 1011.05 124.592 1010.38 127.841C1009.82 131.091 1009.03 133.612 1008.02 135.405C1009.59 136.749 1010.77 138.318 1011.55 140.111C1012.45 141.903 1012.9 143.752 1012.9 145.657C1012.9 148.907 1011.78 151.708 1009.53 154.061C1007.4 156.414 1004.55 157.59 1000.96 157.59C998.266 157.59 996.08 157.198 994.398 156.414C992.716 155.63 990.922 154.397 989.016 152.716C986.213 154.397 983.129 155.63 979.766 156.414C976.514 157.198 972.422 157.59 967.488 157.59ZM970.852 140.615C973.206 140.615 975.057 140.111 976.402 139.102C977.86 138.094 978.589 136.861 978.589 135.405C978.589 133.948 977.86 132.715 976.402 131.707C975.057 130.699 973.206 130.194 970.852 130.194C968.497 130.194 966.591 130.699 965.134 131.707C963.788 132.715 963.115 133.948 963.115 135.405C963.115 136.861 963.788 138.094 965.134 139.102C966.591 140.111 968.497 140.615 970.852 140.615Z" fill="#62748E"/>
</svg>
