<svg width="540" height="161" viewBox="0 0 540 161" fill="none" xmlns="http://www.w3.org/2000/svg">
<path d="M169.22 128.762C159.942 128.762 152.657 126.168 147.363 120.98C142.07 115.738 139.423 107.929 139.423 97.5536V18.8371H166.273V42.7551H185.838V64.052H166.273V92.8847C166.273 97.3625 167.255 100.502 169.22 102.304C171.185 104.106 173.722 105.008 176.833 105.008C178.525 105.008 180.189 104.816 181.827 104.434C183.518 103.997 185.074 103.369 186.493 102.55L189.931 123.601C187.366 125.021 184.282 126.222 180.68 127.205C177.079 128.243 173.258 128.762 169.22 128.762Z" fill="#62748E"/>
<path d="M245.717 128.762C236.604 128.762 228.554 126.769 221.568 122.782C214.583 118.741 209.098 113.362 205.115 106.646C201.185 99.929 199.221 92.557 199.221 84.5298C199.221 78.6868 200.339 73.1168 202.577 67.8199C204.869 62.4684 208.089 57.7448 212.236 53.6493C216.384 49.4991 221.296 46.25 226.971 43.9019C232.647 41.4991 238.896 40.2978 245.717 40.2978C254.831 40.2978 262.881 42.3183 269.866 46.3592C276.852 50.3455 282.309 55.6971 286.238 62.4138C290.168 69.1305 292.132 76.5025 292.132 84.5298C292.132 90.3727 291.013 95.97 288.776 101.322C286.538 106.618 283.346 111.315 279.198 115.41C275.051 119.506 270.139 122.755 264.463 125.158C258.788 127.56 252.539 128.762 245.717 128.762ZM245.717 105.663C249.537 105.663 252.976 104.816 256.032 103.124C259.088 101.376 261.489 98.9188 263.236 95.7516C264.982 92.5843 265.855 88.8437 265.855 84.5298C265.855 80.1612 264.982 76.4206 263.236 73.3079C261.544 70.1407 259.17 67.7107 256.114 66.0178C253.058 64.2704 249.592 63.3967 245.717 63.3967C241.843 63.3967 238.377 64.2704 235.321 66.0178C232.265 67.7107 229.864 70.1407 228.117 73.3079C226.371 76.4206 225.498 80.1612 225.498 84.5298C225.498 88.8437 226.371 92.5843 228.117 95.7516C229.918 98.9188 232.347 101.376 235.403 103.124C238.459 104.816 241.897 105.663 245.717 105.663Z" fill="#62748E"/>
<path d="M307.857 160.707V42.7551H331.024V52.3387C334.134 48.68 338.091 45.7585 342.893 43.5742C347.75 41.3899 353.372 40.2978 359.757 40.2978C367.724 40.2978 374.819 42.1271 381.04 45.7858C387.316 49.4445 392.255 54.6049 395.857 61.267C399.459 67.9291 401.26 75.6834 401.26 84.5298C401.26 90.755 400.223 96.5707 398.149 101.977C396.13 107.328 393.238 112.025 389.472 116.066C385.706 120.052 381.259 123.164 376.129 125.403C371.053 127.642 365.432 128.762 359.266 128.762C354.354 128.762 349.824 127.97 345.677 126.386C341.584 124.803 337.9 122.564 334.626 119.67V160.707H307.857ZM354.763 105.663C358.638 105.663 362.103 104.816 365.159 103.124C368.216 101.376 370.617 98.9188 372.363 95.7516C374.11 92.5843 374.983 88.8437 374.983 84.5298C374.983 80.1612 374.082 76.4206 372.281 73.3079C370.535 70.1407 368.134 67.7107 365.078 66.0178C362.076 64.2704 358.638 63.3967 354.763 63.3967C350.943 63.3967 347.505 64.2704 344.449 66.0178C341.393 67.7107 338.991 70.1407 337.245 73.3079C335.499 76.4206 334.626 80.1612 334.626 84.5298C334.626 88.8437 335.499 92.5843 337.245 95.7516C338.991 98.9188 341.365 101.376 344.367 103.124C347.423 104.816 350.888 105.663 354.763 105.663Z" fill="#62748E"/>
<path d="M416.898 126.304V45.7039L443.748 41.3626V126.304H416.898Z" fill="#62748E"/>
<path fill-rule="evenodd" clip-rule="evenodd" d="M489.636 128.762C484.07 128.762 479.076 127.697 474.656 125.567C470.235 123.383 466.742 120.298 464.177 116.311C461.612 112.27 460.33 107.438 460.33 101.813C460.33 97.0075 461.503 92.7482 463.85 89.0349C466.251 85.3216 469.853 82.2635 474.656 79.8608C479.458 77.4581 485.488 75.8472 492.747 75.0281C499.017 74.2789 506.19 74.1721 514.266 74.7077C514.182 71.9699 513.557 69.5375 512.393 67.4103C511.138 65.1168 509.146 63.3421 506.417 62.0861C503.743 60.7755 500.169 60.1203 495.694 60.1203C491.382 60.1203 487.098 60.7755 482.842 62.0861C478.585 63.3421 474.765 65.2534 471.381 67.8199L464.505 49.3899C469.908 46.0043 475.692 43.5196 481.859 41.936C488.026 40.2978 494.084 39.4787 500.032 39.4787C507.891 39.4787 514.795 40.7346 520.743 43.2466C526.746 45.7585 531.439 49.6356 534.823 54.878C538.207 60.1203 539.898 66.837 539.898 75.0281V126.304H516.732V117.458C514.058 121.062 510.374 123.847 505.681 125.813C500.987 127.779 495.639 128.762 489.636 128.762ZM493.893 91.4103C496.84 90.6458 500.387 90.2908 504.535 90.3454C507.532 90.3454 510.779 90.5816 514.276 91.0539V94.441C514.276 97.6628 513.485 100.393 511.902 102.632C510.374 104.816 508.3 106.482 505.681 107.629C503.116 108.775 500.223 109.349 497.003 109.349C493.292 109.349 490.318 108.584 488.081 107.055C485.898 105.526 484.806 103.315 484.806 100.42C484.806 98.1816 485.598 96.2976 487.18 94.7686C488.763 93.2396 491 92.1202 493.893 91.4103Z" fill="#62748E"/>
<path d="M37.8014 124.167C45.308 127.252 53.4722 128.795 62.2938 128.795C71.1703 128.795 79.3344 127.252 86.7862 124.167C92.2133 121.878 97.1318 118.951 101.542 115.383C97.1318 111.785 92.2133 108.843 86.7862 106.554C79.4872 103.477 71.5047 101.907 62.8389 101.844C62.6578 101.846 62.476 101.847 62.2937 101.847C62.1126 101.847 61.932 101.846 61.752 101.844C53.1376 101.906 45.1541 103.448 37.8014 106.47C32.3219 108.739 27.3609 111.676 22.9184 115.279C27.3609 118.894 32.3219 121.856 37.8014 124.167Z" fill="#62748E"/>
<path d="M119.087 91.5985C122.155 84.1367 123.689 76.0578 123.689 67.3618C123.689 58.778 122.155 50.7832 119.087 43.3776C116.073 35.9158 111.799 29.3797 106.265 23.7694C100.731 18.1591 94.238 13.783 86.7862 10.6412C79.3344 7.49939 71.1703 5.9285 62.2938 5.9285C53.4722 5.9285 45.308 7.47134 37.8014 10.557C30.3496 13.6427 23.8566 17.9627 18.3226 23.5169C12.7885 29.0712 8.48725 35.5792 5.41885 43.0409C2.40524 50.5027 0.898438 58.6096 0.898438 67.3618C0.898438 76.0578 2.40524 84.1367 5.41885 91.5985C7.20263 95.9363 9.40306 99.9518 12.0201 103.645C17.8058 98.8125 24.3076 94.9019 31.5255 91.9131C33.2143 91.2189 34.9297 90.5868 36.6715 90.0169C35.6088 88.6566 34.643 87.189 33.774 85.6141C30.9248 80.4502 29.5001 74.3799 29.5001 67.4032C29.5001 62.1295 30.322 57.3776 31.9658 53.1477C33.6096 48.9177 35.8835 45.292 38.7875 42.2706C41.7464 39.2492 45.2257 36.942 49.2256 35.3489C53.2254 33.7008 57.5815 32.8768 62.2937 32.8768C68.5948 32.8768 74.2111 34.3051 79.1425 37.1617C84.1286 39.9634 88.0189 43.9461 90.8133 49.11C93.6626 54.2738 95.0872 60.3716 95.0872 67.4032C95.0872 72.622 94.2653 77.3739 92.6215 81.6588C91.4408 84.802 89.8818 87.6115 87.9447 90.0874C89.6794 90.6678 91.3854 91.3117 93.0627 92.0188C100.227 95.0395 106.686 98.9684 112.44 103.805C115.094 100.068 117.309 95.9992 119.087 91.5985Z" fill="#62748E"/>
<path d="M451.443 1.24501C443.597 0.162789 435.48 0.713347 427.093 2.89667C426.919 2.94583 426.744 2.99403 426.567 3.04125C426.393 3.08815 426.218 3.13377 426.043 3.17812C417.739 5.46892 410.426 9.02613 404.106 13.8498C399.4 17.4605 395.367 21.5815 392.008 26.213C397.234 28.5539 402.793 30.1306 408.683 30.943C409.917 31.1019 411.157 31.2218 412.402 31.3027C419.121 31.7389 426.001 31.0386 433.043 29.2018C433.207 29.1556 433.371 29.1103 433.536 29.066C433.705 29.0209 433.873 28.9769 434.041 28.9341C441.088 26.9929 447.394 24.1605 452.958 20.4371C453.997 19.7415 455.011 19.0148 455.999 18.257C460.649 14.6413 464.642 10.5394 467.979 5.95121C462.789 3.61841 457.277 2.04968 451.443 1.24501Z" fill="#62748E"/>
</svg>
