<svg width="637" height="161" viewBox="0 0 637 161" fill="none" xmlns="http://www.w3.org/2000/svg">
<path d="M263.515 40.4993C264.549 40.4802 265.583 40.4611 266.649 40.4414C267.64 40.4366 268.631 40.4318 269.652 40.4269C271.02 40.4139 271.02 40.4139 272.416 40.4006C274.761 40.7311 274.761 40.7311 276.386 41.812C277.928 44.0787 278.35 46.0948 278.902 48.7799C279.125 49.844 279.348 50.908 279.579 52.0043C279.806 53.1421 280.033 54.2799 280.268 55.4523C280.508 56.6104 280.747 57.7686 280.995 58.9618C282.651 67.0172 284.229 75.0893 285.7 83.1806C286.356 87.1062 286.356 87.1062 287.745 90.8061C287.879 90.2198 288.012 89.6335 288.149 89.0294C289.537 82.9345 290.938 76.8429 292.348 70.7532C292.872 68.4792 293.393 66.2044 293.91 63.9287C294.654 60.6602 295.41 57.395 296.169 54.1301C296.398 53.11 296.627 52.0899 296.863 51.0388C297.086 50.0922 297.308 49.1456 297.538 48.1703C297.729 47.3363 297.921 46.5023 298.118 45.6431C298.946 43.3135 299.707 42.2292 301.658 40.7311C305.649 40.1295 309.684 40.3017 313.715 40.3254C315.386 40.2977 315.386 40.2977 317.092 40.2693C318.158 40.2699 319.225 40.2705 320.323 40.2711C321.301 40.2694 322.279 40.2677 323.287 40.2659C325.772 40.7311 325.772 40.7311 327.235 42.3278C328.649 44.5913 329.272 46.4433 329.892 49.0326C330.115 49.942 330.338 50.8515 330.567 51.7884C330.796 52.7632 331.025 53.738 331.261 54.7423C331.504 55.7456 331.747 56.7489 331.998 57.7826C332.771 60.9836 333.533 64.1874 334.294 67.3914C334.816 69.5638 335.34 71.736 335.864 73.908C337.147 79.2294 338.42 84.5531 339.685 89.8788C341.339 83.4557 342.882 77.052 344.061 70.5247C344.335 69.0606 344.609 67.5966 344.884 66.1327C345.302 63.8788 345.718 61.6246 346.128 59.3691C346.533 57.1551 346.948 54.9435 347.365 52.7319C347.544 51.7248 347.544 51.7248 347.726 50.6974C348.453 46.8932 349.212 43.7206 351.742 40.7311C354.001 40.1901 354.001 40.1901 356.647 40.2458C357.597 40.2565 358.546 40.2673 359.524 40.2784C361.009 40.3303 361.009 40.3304 362.524 40.3834C363.521 40.3965 364.518 40.4097 365.545 40.4232C372.905 40.5626 372.905 40.5626 374.001 41.6585C373.89 47.8387 372.534 53.6824 370.81 59.5817C370.471 60.778 370.471 60.778 370.125 61.9985C369.396 64.571 368.655 67.1403 367.915 69.7097C366.897 73.2779 365.884 76.8475 364.872 80.4173C364.62 81.3012 364.369 82.1851 364.109 83.0958C362.562 88.5533 361.074 94.0222 359.654 99.5141C359.485 100.167 359.315 100.82 359.141 101.493C358.363 104.497 357.595 107.502 356.843 110.512C356.574 111.554 356.305 112.597 356.028 113.67C355.802 114.567 355.577 115.464 355.345 116.389C354.445 118.843 353.914 119.954 351.742 121.407C349.171 121.767 349.171 121.767 346.09 121.777C344.982 121.781 343.873 121.784 342.731 121.788C340.994 121.772 340.994 121.772 339.221 121.755C338.062 121.766 336.904 121.777 335.71 121.788C334.048 121.782 334.048 121.782 332.352 121.777C331.335 121.774 330.318 121.771 329.27 121.767C326.297 121.351 325.755 120.904 323.917 118.626C323.202 116.748 323.202 116.748 322.68 114.579C322.479 113.765 322.277 112.952 322.07 112.113C321.762 110.8 321.762 110.8 321.446 109.461C321.116 108.112 321.116 108.112 320.779 106.735C320.077 103.862 319.388 100.986 318.7 98.1087C318.004 95.2258 317.304 92.3436 316.602 89.4622C316.165 87.6686 315.732 85.8739 315.304 84.0783C315.011 82.8665 315.011 82.8665 314.713 81.6303C314.542 80.9159 314.371 80.2015 314.195 79.4655C313.855 77.8155 313.855 77.8155 312.788 76.8964C312.585 77.6918 312.585 77.6918 312.377 78.5033C310.971 84.0106 309.555 89.5156 308.134 95.0193C307.605 97.075 307.078 99.1312 306.553 101.188C305.799 104.141 305.037 107.091 304.273 110.041C304.04 110.964 303.806 111.888 303.565 112.839C303.342 113.693 303.119 114.547 302.89 115.427C302.696 116.18 302.503 116.934 302.303 117.71C301.658 119.553 301.658 119.553 299.803 121.407C295.511 121.861 291.189 121.751 286.876 121.755C285.066 121.789 285.065 121.789 283.219 121.824C282.064 121.828 280.91 121.831 279.721 121.835C278.128 121.846 278.128 121.846 276.504 121.858C273.833 121.407 273.833 121.407 272.407 119.956C270.659 117.046 269.812 114.048 268.947 110.796C268.756 110.107 268.566 109.417 268.37 108.707C267.745 106.433 267.131 104.156 266.518 101.88C266.086 100.295 265.653 98.7104 265.22 97.1261C264.315 93.8076 263.415 90.4876 262.519 87.1663C261.372 82.9126 260.212 78.6623 259.048 74.4131C258.153 71.1423 257.264 67.87 256.377 64.5971C255.951 63.0294 255.524 61.4622 255.096 59.8955C254.497 57.7042 253.906 55.511 253.317 53.3171C253.051 52.3494 253.051 52.3494 252.779 51.362C251.903 48.0637 251.279 45.076 251.574 41.6585C253.927 39.3056 260.352 40.5138 263.515 40.4993Z" fill="#62748E"/>
<path d="M430.578 43.5131C432.604 44.9575 434.33 46.4326 436.143 48.1497C436.43 47.0977 436.717 46.0458 437.012 44.962C437.998 41.6585 437.998 41.6585 438.925 40.7311C442.61 40.4969 446.306 40.5594 449.997 40.5573C451.039 40.5459 452.081 40.5346 453.155 40.5229C454.646 40.5202 454.646 40.5202 456.167 40.5174C457.543 40.5117 457.543 40.5117 458.946 40.5059C461.185 40.7311 461.185 40.7311 463.04 42.5858C463.219 45.0665 463.283 47.4507 463.265 49.9321C463.267 50.6906 463.269 51.4491 463.271 52.2306C463.274 54.7451 463.264 57.2593 463.254 59.7737C463.253 61.5152 463.252 63.2568 463.252 64.9983C463.251 68.6505 463.243 72.3026 463.231 75.9548C463.215 80.6471 463.212 85.3393 463.212 90.0316C463.212 93.628 463.207 97.2244 463.2 100.821C463.197 102.552 463.195 104.282 463.195 106.013C463.193 108.427 463.185 110.84 463.175 113.254C463.175 113.976 463.176 114.698 463.176 115.442C463.146 120.374 463.146 120.374 462.113 121.407C458.273 121.642 454.423 121.579 450.577 121.581C449.491 121.593 448.405 121.604 447.285 121.616C446.249 121.618 445.214 121.619 444.146 121.621C443.19 121.625 442.235 121.629 441.25 121.633C438.925 121.407 438.925 121.407 437.07 119.553C436.702 117.709 436.386 115.853 436.143 113.989C435.683 114.358 435.222 114.728 434.748 115.108C426.394 121.622 418.489 123.97 407.833 123.063C398.944 121.426 390.444 116.098 385.24 108.737C377.542 96.2741 375.791 83.1615 378.32 68.8041C381.605 56.9424 387.797 48.5633 398.301 42.296C407.888 37.6089 421.443 38.0048 430.578 43.5131ZM409.347 66.3735C405.215 71.117 404.452 74.5573 404.377 80.8954C404.353 82.0968 404.329 83.2981 404.304 84.5359C404.74 89.5304 406.518 93.2754 410.231 96.6598C414.219 99.8558 418.137 100.41 423.158 100.079C427.512 99.2754 430.037 97.8149 433.245 94.7472C436.906 89.1476 437.793 83.4569 437.07 76.8964C435.889 71.7559 433.921 68.0899 429.651 64.8413C422.525 61.7792 415.652 60.8647 409.347 66.3735Z" fill="#62748E"/>
<path d="M174.94 40.3254C176.095 40.295 177.25 40.2645 178.44 40.2331C179.549 40.2265 180.659 40.2199 181.802 40.2132C182.82 40.2007 183.838 40.1882 184.887 40.1753C187.577 40.7311 187.577 40.7311 189.567 42.4957C191.91 46.4083 193.386 50.4538 194.896 54.7459C195.22 55.645 195.544 56.5441 195.878 57.4704C196.907 60.3301 197.923 63.1941 198.939 66.0584C199.636 68.0033 200.334 69.9479 201.033 71.8921C202.74 76.6479 204.437 81.4073 206.127 86.1695C207.694 83.8192 208.567 82.062 209.51 79.4556C209.942 78.2719 209.942 78.2719 210.383 77.0643C210.689 76.2151 210.996 75.366 211.311 74.4912C211.969 72.6956 212.626 70.9001 213.284 69.1048C214.317 66.2731 215.347 63.4405 216.373 60.6064C217.365 57.8715 218.366 55.1404 219.369 52.4095C219.673 51.5604 219.978 50.7113 220.291 49.8364C220.728 48.6527 220.728 48.6527 221.173 47.4451C221.551 46.4044 221.551 46.4044 221.936 45.3427C222.911 43.3272 223.864 42.1347 225.604 40.7311C228.119 40.4006 228.119 40.4006 231.118 40.4269C232.193 40.4316 233.268 40.4364 234.375 40.4414C236.059 40.47 236.059 40.47 237.777 40.4993C239.472 40.5065 239.472 40.5065 241.201 40.5138C249.576 40.5885 249.576 40.5885 250.646 41.6585C250.302 47.6169 248.078 52.5551 245.712 57.977C245.09 59.4278 245.09 59.4278 244.455 60.908C243.087 64.0962 241.707 67.2796 240.328 70.4631C239.371 72.6854 238.416 74.908 237.461 77.1309C235.971 80.599 234.48 84.0667 232.985 87.5328C229.425 95.7929 225.897 104.066 222.387 112.348C221.9 113.496 221.413 114.645 220.926 115.793C219.051 120.213 217.176 124.633 215.305 129.054C214.014 132.104 212.719 135.153 211.424 138.201C211.049 139.089 210.674 139.978 210.287 140.893C203.751 156.239 203.751 156.239 200.562 159.427C198.138 159.638 198.138 159.638 195.106 159.608C194.024 159.602 192.942 159.596 191.827 159.59C190.692 159.575 189.558 159.559 188.389 159.543C187.247 159.535 186.105 159.527 184.929 159.518C182.101 159.496 179.274 159.465 176.447 159.427C175.042 155.495 175.969 153.068 177.677 149.366C178.007 148.683 178.336 148 178.675 147.296C179.006 146.579 179.337 145.863 179.678 145.124C181.089 142.065 182.528 139.02 183.968 135.975C185.017 133.746 186.049 131.509 187.081 129.272C187.408 128.594 187.736 127.917 188.073 127.219C190.419 122.117 191.41 117.528 189.781 112.042C188.973 109.907 188.073 107.836 187.131 105.755C186.793 104.978 186.455 104.201 186.106 103.401C185.005 100.878 183.885 98.3634 182.766 95.8484C182.003 94.1071 181.242 92.3653 180.482 90.6227C178.949 87.1097 177.412 83.5991 175.87 80.0899C172.994 73.5252 170.197 66.9281 167.427 60.3177C166.665 58.4995 165.898 56.6832 165.13 54.867C164.674 53.7811 164.218 52.6952 163.749 51.5764C163.355 50.6393 162.961 49.7023 162.555 48.7369C160.939 44.5718 160.939 44.5718 160.68 42.5858C164.186 39.0806 170.21 40.3473 174.94 40.3254Z" fill="#62748E"/>
<path d="M537.645 21.0837C539.123 21.0666 539.123 21.0666 540.632 21.0493C541.577 21.0475 542.522 21.0457 543.496 21.0438C544.363 21.04 545.23 21.0362 546.124 21.0323C548.369 21.2576 548.369 21.2575 551.151 23.1122C551.467 24.9401 551.467 24.9401 551.423 27.1474C551.409 28.3309 551.409 28.3309 551.396 29.5382C551.372 30.363 551.349 31.1878 551.325 32.0376C551.306 33.2855 551.306 33.2855 551.287 34.5587C551.254 36.6167 551.208 38.6737 551.151 40.7311C552.134 40.7096 553.117 40.6881 554.129 40.6659C555.416 40.6485 556.704 40.6317 557.991 40.6152C558.963 40.5919 558.963 40.5919 559.955 40.5681C561.658 40.5518 563.362 40.6356 565.063 40.7311C567.336 43.0029 567.156 43.6402 567.165 46.7587C567.168 47.9923 567.168 47.9923 567.172 49.2508C567.165 50.1115 567.157 50.9722 567.15 51.8589C567.161 53.1499 567.161 53.1499 567.172 54.467C567.169 55.2894 567.167 56.1118 567.165 56.9591C567.163 57.7146 567.16 58.4701 567.158 59.2484C566.918 61.132 566.918 61.132 565.063 62.9867C560.472 62.9867 555.881 62.9867 551.151 62.9867C551.457 74.6152 551.763 86.2437 552.078 98.2246C558.506 98.6836 558.506 98.6836 565.063 99.1519C566.918 101.007 566.918 101.007 567.144 102.99C567.14 103.79 567.136 104.59 567.132 105.415C567.13 106.283 567.128 107.152 567.127 108.047C567.11 109.41 567.11 109.41 567.092 110.801C567.092 111.714 567.091 112.627 567.09 113.567C567.048 120.35 567.048 120.35 565.991 121.407C554.568 122.44 542.118 122.967 532.717 115.612C528.363 109.978 525.054 105.232 525.076 97.9375C525.076 97.1581 525.076 96.3786 525.076 95.5755C525.081 94.7427 525.086 93.9099 525.091 93.0519C525.092 92.1927 525.093 91.3335 525.095 90.4482C525.1 87.7083 525.112 84.9684 525.123 82.2284C525.128 80.369 525.132 78.5095 525.136 76.6501C525.146 72.0956 525.162 67.5411 525.181 62.9867C524.015 63.044 522.848 63.1014 521.645 63.1605C518.027 63.1533 518.027 63.1533 515.928 61.8348C514.781 59.8644 514.633 58.6539 514.642 56.3796C514.643 55.648 514.643 54.9164 514.644 54.1627C514.659 53.4025 514.674 52.6422 514.689 51.8589C514.686 51.0987 514.683 50.3384 514.68 49.5551C514.731 43.8849 514.731 43.8849 516.834 40.7311C519.589 40.7311 522.343 40.7311 525.181 40.7311C525.181 34.6109 525.181 28.4906 525.181 22.1849C528.881 20.3355 533.577 21.0861 537.645 21.0837Z" fill="#62748E"/>
<path d="M131.475 14.3158C132.835 14.3273 132.835 14.3273 134.221 14.3389C135.702 14.3443 135.702 14.3443 137.212 14.3498C138.242 14.3725 139.272 14.3952 140.333 14.4186C141.367 14.4198 142.401 14.421 143.465 14.4222C151.145 14.506 151.145 14.506 153.26 16.621C153.494 18.4515 153.494 18.4515 153.496 20.7392C153.501 21.6052 153.506 22.4711 153.512 23.3633C153.508 24.3162 153.504 25.2691 153.5 26.2509C153.503 27.2522 153.507 28.2534 153.51 29.285C153.518 32.6078 153.513 35.9304 153.507 39.2532C153.508 41.5539 153.51 43.8546 153.512 46.1552C153.515 51.6014 153.509 57.0475 153.499 62.4937C153.492 66.8417 153.494 71.1896 153.502 75.5376C153.513 81.5222 153.514 87.5068 153.508 93.4915C153.507 95.778 153.509 98.0644 153.513 100.351C153.518 103.542 153.511 106.732 153.5 109.923C153.504 110.876 153.508 111.829 153.512 112.81C153.506 113.676 153.501 114.542 153.496 115.435C153.495 116.19 153.494 116.944 153.494 117.722C153.26 119.553 153.26 119.553 151.405 121.407C149.081 121.633 149.081 121.633 146.184 121.621C145.149 121.619 144.113 121.618 143.045 121.616C141.959 121.604 140.873 121.593 139.754 121.581C138.664 121.581 137.574 121.58 136.451 121.58C128.348 121.537 128.348 121.537 127.291 120.48C127.185 119.164 127.142 117.842 127.125 116.521C127.112 115.667 127.099 114.813 127.085 113.933C127.076 112.988 127.066 112.043 127.056 111.07C127.042 110.081 127.029 109.092 127.015 108.073C126.971 104.784 126.935 101.495 126.899 98.2065C126.873 95.9297 126.847 93.653 126.821 91.3762C126.768 86.5951 126.718 81.814 126.672 77.0329C126.61 70.8989 126.532 64.7652 126.449 58.6314C126.389 53.9261 126.341 49.2207 126.297 44.5151C126.273 42.2535 126.245 39.9918 126.212 37.7303C126.168 34.5687 126.14 31.4075 126.118 28.2457C126.1 27.3067 126.083 26.3676 126.065 25.4002C126.063 24.5381 126.06 23.6761 126.057 22.7879C126.049 22.0403 126.041 21.2927 126.033 20.5225C126.595 17.0406 127.977 14.9922 131.475 14.3158Z" fill="#62748E"/>
<path d="M92.394 14.52C93.384 14.5176 94.3739 14.5153 95.3939 14.5128C96.9505 14.5235 96.9505 14.5236 98.5386 14.5345C99.5764 14.5274 100.614 14.5202 101.683 14.5128C102.673 14.5152 103.663 14.5176 104.683 14.52C105.594 14.5221 106.505 14.5242 107.444 14.5264C109.668 14.7664 109.668 14.7664 111.523 16.621C111.757 18.4515 111.757 18.4515 111.759 20.7392C111.764 21.6052 111.769 22.4711 111.775 23.3633C111.771 24.3162 111.767 25.2691 111.763 26.2509C111.767 27.2522 111.77 28.2534 111.773 29.285C111.781 32.6078 111.776 35.9304 111.77 39.2532C111.771 41.5539 111.773 43.8546 111.775 46.1552C111.778 51.6014 111.772 57.0475 111.762 62.4937C111.755 66.8417 111.757 71.1896 111.765 75.5376C111.776 81.5222 111.778 87.5068 111.772 93.4915C111.77 95.778 111.772 98.0644 111.776 100.351C111.781 103.542 111.774 106.732 111.763 109.923C111.767 110.876 111.771 111.829 111.775 112.81C111.77 113.676 111.764 114.542 111.759 115.435C111.758 116.19 111.758 116.944 111.757 117.722C111.523 119.553 111.523 119.553 109.668 121.407C107.329 121.618 107.329 121.618 104.415 121.589C103.375 121.583 102.335 121.577 101.263 121.57C100.173 121.555 99.0823 121.539 97.9589 121.523C96.8614 121.515 95.7638 121.507 94.633 121.498C91.9156 121.476 89.1985 121.446 86.4813 121.407C84.0064 116.789 84.4025 112.171 84.4715 107.08C84.4773 106.106 84.483 105.131 84.489 104.127C84.5108 100.91 84.5464 97.6928 84.5829 94.4755C84.6024 92.2412 84.6214 90.0069 84.6399 87.7726C84.6807 83.0931 84.7283 78.4137 84.7808 73.7343C84.8476 67.7252 84.8976 61.7161 84.9426 55.7068C84.9789 51.0953 85.024 46.4839 85.0717 41.8724C85.0936 39.6559 85.1128 37.4393 85.1292 35.2227C85.1535 32.1321 85.1895 29.0418 85.2287 25.9514C85.2336 25.0289 85.2385 24.1064 85.2436 23.1559C85.2566 22.3173 85.2696 21.4788 85.2831 20.6149C85.2906 19.8841 85.2981 19.1533 85.3059 18.4003C85.8948 14.1739 88.8602 14.5282 92.394 14.52Z" fill="#62748E"/>
<path d="M7.99293 14.52C8.98287 14.5176 9.97282 14.5153 10.9928 14.5128C12.5494 14.5235 12.5494 14.5236 14.1375 14.5345C15.1753 14.5274 16.2131 14.5202 17.2823 14.5128C18.2722 14.5152 19.2622 14.5176 20.2821 14.52C21.1931 14.5221 22.1042 14.5242 23.0428 14.5264C25.2673 14.7664 25.2673 14.7664 27.1223 16.621C27.3531 18.4686 27.3531 18.4686 27.3516 20.7807C27.3555 21.6558 27.3594 22.5309 27.3634 23.4325C27.3556 24.877 27.3556 24.877 27.3476 26.3508C27.3494 27.3625 27.3511 28.3743 27.3529 29.4168C27.3564 32.7741 27.3464 36.1313 27.3361 39.4887C27.3349 41.8124 27.3345 44.136 27.3348 46.4597C27.3333 51.3343 27.3258 56.2088 27.3132 61.0834C27.2986 66.7259 27.2937 72.3684 27.2944 78.011C27.295 83.4317 27.2901 88.8523 27.2825 94.273C27.2796 96.5835 27.2777 98.894 27.2771 101.204C27.2751 104.426 27.267 107.648 27.257 110.87C27.2577 112.318 27.2577 112.318 27.2583 113.794C27.2543 114.667 27.2504 115.539 27.2463 116.438C27.2448 117.201 27.2432 117.963 27.2416 118.749C27.1223 120.48 27.1223 120.48 26.1948 121.407C22.3554 121.642 18.505 121.579 14.6592 121.581C13.573 121.593 12.4868 121.604 11.3677 121.616C10.3318 121.618 9.29579 121.619 8.22842 121.621C7.27263 121.625 6.31683 121.629 5.33207 121.633C3.0077 121.407 3.0077 121.407 1.15273 119.553C0.919301 117.722 0.919301 117.722 0.917181 115.435C0.911951 114.569 0.90672 113.703 0.901331 112.81C0.906963 111.381 0.906963 111.381 0.912709 109.923C0.909459 108.922 0.906208 107.92 0.902859 106.889C0.894668 103.566 0.900111 100.243 0.906369 96.9206C0.90512 94.6199 0.903321 92.3192 0.900991 90.0186C0.897901 84.5724 0.904411 79.1262 0.914256 73.6801C0.921221 69.3321 0.918758 64.9842 0.910898 60.6362C0.900171 54.6516 0.898448 48.667 0.904508 42.6823C0.905749 40.3958 0.904215 38.1094 0.899909 35.8229C0.895219 32.6322 0.902351 29.4417 0.912709 26.2509C0.908954 25.298 0.9052 24.3451 0.901331 23.3633C0.906562 22.4974 0.911792 21.6314 0.917181 20.7392C0.917881 19.9843 0.91858 19.2293 0.919301 18.4515C1.46374 14.1821 4.42771 14.5282 7.99293 14.52Z" fill="#62748E"/>
<path d="M480.662 40.7311C482.972 40.3712 482.972 40.3712 485.85 40.3617C486.882 40.3581 487.914 40.3545 488.977 40.3508C490.6 40.3669 490.6 40.3669 492.256 40.3834C493.338 40.3726 494.42 40.3619 495.535 40.3508C496.566 40.3544 497.598 40.358 498.661 40.3617C499.611 40.3648 500.561 40.3679 501.54 40.3712C502.302 40.49 503.064 40.6088 503.849 40.7311C506.128 44.1488 505.966 46.7276 505.944 50.6798C505.948 51.4084 505.951 52.1369 505.954 52.8876C505.962 55.2977 505.957 57.7076 505.951 60.1178C505.952 61.7912 505.954 63.4646 505.956 65.138C505.959 68.6459 505.955 72.1537 505.946 75.6616C505.936 80.1614 505.942 84.661 505.953 89.1608C505.959 92.6165 505.957 96.0722 505.952 99.5279C505.951 101.187 505.953 102.847 505.957 104.506C505.962 106.824 505.955 109.141 505.944 111.459C505.948 112.147 505.952 112.835 505.956 113.544C505.927 116.987 505.812 118.464 503.849 121.407C501.54 121.767 501.54 121.767 498.661 121.777C497.629 121.781 496.598 121.784 495.535 121.788C494.453 121.777 493.371 121.766 492.256 121.755C491.174 121.766 490.092 121.777 488.977 121.788C487.945 121.784 486.913 121.781 485.85 121.777C484.9 121.774 483.951 121.771 482.972 121.767C481.829 121.589 481.829 121.589 480.662 121.407C478.383 117.99 478.546 115.411 478.567 111.459C478.564 110.73 478.561 110.002 478.557 109.251C478.549 106.841 478.555 104.431 478.561 102.021C478.56 100.347 478.558 98.674 478.555 97.0006C478.553 93.4927 478.557 89.9849 478.565 86.477C478.576 81.9772 478.57 77.4776 478.559 72.9778C478.552 69.5221 478.554 66.0664 478.559 62.6107C478.56 60.9514 478.559 59.292 478.554 57.6327C478.55 55.315 478.557 52.9976 478.567 50.6798C478.563 49.9919 478.56 49.3039 478.556 48.595C478.584 45.1519 478.7 43.6742 480.662 40.7311Z" fill="#62748E"/>
<path d="M44.7445 40.7311C46.9543 40.3712 46.9543 40.3712 49.6971 40.3617C50.6829 40.3581 51.6686 40.3545 52.6843 40.3508C54.2347 40.3669 54.2347 40.3669 55.8164 40.3834C56.8463 40.3726 57.8763 40.3619 58.9375 40.3508C60.418 40.3562 60.418 40.3562 61.9283 40.3617C62.8345 40.3648 63.7407 40.3679 64.6743 40.3712C67.0041 40.7311 67.0041 40.7311 68.5194 41.6967C70.4713 44.4946 70.1658 47.3901 70.1319 50.6798C70.1353 51.4084 70.1387 52.1369 70.1422 52.8876C70.1497 55.2979 70.137 57.7076 70.1235 60.1178C70.123 61.7912 70.1235 63.4646 70.1249 65.138C70.1248 68.6459 70.1152 72.1537 70.0984 75.6616C70.0773 80.1614 70.0768 84.661 70.0831 89.1608C70.0862 92.6165 70.08 96.0722 70.0709 99.5279C70.0673 101.187 70.0663 102.847 70.0678 104.506C70.0681 106.824 70.0564 109.141 70.0413 111.459C70.0436 112.147 70.0459 112.835 70.0483 113.544C70.0125 116.984 69.8921 118.467 67.9316 121.407C65.622 121.753 65.622 121.753 62.7435 121.744C61.7117 121.744 60.6799 121.743 59.6169 121.743C58.5349 121.728 57.4529 121.713 56.3381 121.697C55.2561 121.7 54.1741 121.703 53.0593 121.706C44.992 121.655 44.992 121.655 42.8895 119.553C42.7055 117.138 42.6366 114.822 42.6495 112.406C42.6463 111.669 42.643 110.931 42.6397 110.171C42.6315 107.726 42.6369 105.281 42.6432 102.836C42.6419 101.14 42.6401 99.4448 42.6378 97.7493C42.6351 94.1922 42.639 90.6351 42.6477 87.078C42.6583 82.5148 42.6522 77.9518 42.6411 73.3885C42.6344 69.8859 42.6365 66.3833 42.6413 62.8807C42.6426 61.198 42.641 59.5154 42.6367 57.8328C42.632 55.4816 42.6392 53.1308 42.6495 50.7797C42.6458 50.0816 42.642 49.3835 42.6381 48.6642C42.6664 45.2013 42.7721 43.6892 44.7445 40.7311Z" fill="#62748E"/>
<path d="M610.597 80.6238C615.993 83.3985 619.276 88.8825 621.169 94.4646C622.339 99.2 622.738 103.784 622.799 108.657C622.823 109.79 622.847 110.923 622.872 112.091C622.487 120.657 618.646 127.788 614.278 134.969C613.791 135.812 613.304 136.655 612.802 137.523C612.324 138.318 611.846 139.113 611.354 139.932C610.71 141.009 610.71 141.009 610.054 142.108C609.592 142.621 609.131 143.134 608.655 143.663C607.431 143.663 606.207 143.663 604.945 143.663C603.546 142.122 603.546 142.122 602.246 139.965C601.768 139.174 601.291 138.383 600.799 137.568C600.311 136.73 599.824 135.891 599.322 135.027C598.831 134.228 598.341 133.429 597.835 132.606C591.155 121.335 589.017 109.344 592.134 96.4859C594.199 89.9065 597.225 84.4636 603.09 80.6056C606.036 79.6238 607.656 79.6954 610.597 80.6238Z" fill="#62748E"/>
<path d="M497.357 1.78396C501.802 4.04818 504.462 6.55091 506.632 11.0571C507.503 15.9092 507.171 20.0382 504.777 24.3872C502.076 28.1268 499.053 30.3003 494.574 31.458C489.283 31.8951 485.176 30.5727 481.072 27.2308C477.817 23.9769 476.79 20.7 476.546 16.2153C476.723 11.6694 477.945 9.13977 480.662 5.49321C486.362 1.07385 490.458 0.272197 497.357 1.78396Z" fill="#62748E"/>
<path d="M62.4826 1.89988C66.8221 4.72946 69.5764 7.83692 71.1778 12.7379C72.0732 17.2311 71.0307 20.9887 68.8591 24.9668C66.1492 28.1561 62.7348 30.4872 58.6568 31.458C53.1643 31.2837 50.0237 30.3813 45.672 26.8214C41.9948 22.7475 40.6203 19.5927 40.723 14.0165C41.4122 9.52138 43.7785 5.97583 47.4038 3.27636C52.5002 0.46094 56.9098 -0.105971 62.4826 1.89988Z" fill="#62748E"/>
<path d="M619.785 84.3149C626.004 85.4031 629.247 89.6298 632.77 94.5153C637.157 101.916 637.755 110.006 635.932 118.347C632.791 127.568 624.707 135.182 617.002 140.881C615.625 141.34 615.625 141.34 614.22 141.808C615.049 137.588 615.915 134.369 618.336 130.797C624.779 121.048 625.138 109.435 623.198 98.2463C622.391 94.6564 621.15 91.4362 619.785 88.0241C619.785 86.8001 619.785 85.576 619.785 84.3149Z" fill="#62748E"/>
<path d="M594.743 85.2422C594.486 85.9248 594.229 86.6073 593.964 87.3105C593.628 88.2154 593.292 89.1203 592.946 90.0526C592.612 90.9456 592.279 91.8385 591.935 92.7585C588.563 102.792 588.408 116.364 592.888 126.044C594.31 128.7 595.769 131.311 597.333 133.886C598.548 136.445 598.679 138.086 598.453 140.881C589.88 136.937 581.899 128.295 578.048 119.727C575.721 112.2 576.258 103.827 579.53 96.7032C582.209 92.1969 588.479 82.1109 594.743 85.2422Z" fill="#62748E"/>
<path d="M610.51 148.3C612.829 149.285 612.829 149.285 614.22 151.081C614.684 154.327 614.684 154.327 614.22 157.573C612.579 159.692 611.364 160.215 608.742 160.644C605.438 160.842 603.579 160.653 600.713 158.906C599.38 156.645 599.38 156.645 599.438 153.284C601.041 147.516 605.259 147.645 610.51 148.3Z" fill="#62748E"/>
<path d="M389.769 114.916C390.381 115.528 390.993 116.14 391.624 116.771C391.012 116.771 390.399 116.771 389.769 116.771C389.769 116.159 389.769 115.547 389.769 114.916Z" fill="#62748E"/>
<path d="M433.36 116.771C435.215 117.698 435.215 117.698 435.215 117.698L433.36 116.771Z" fill="#62748E"/>
<path d="M386.986 113.062C388.841 113.989 388.841 113.989 388.841 113.989L386.986 113.062Z" fill="#62748E"/>
<path d="M411.101 95.4427C412.956 96.37 412.956 96.37 412.956 96.37L411.101 95.4427Z" fill="#62748E"/>
<path d="M326.7 40.7311C328.555 41.6585 328.555 41.6585 328.555 41.6585L326.7 40.7311Z" fill="#62748E"/>
<path d="M501.067 28.6761C502.922 29.6034 502.922 29.6034 502.922 29.6034L501.067 28.6761Z" fill="#62748E"/>
<path d="M110.596 14.7664C112.451 15.6937 112.451 15.6937 112.451 15.6937L110.596 14.7664Z" fill="#62748E"/>
</svg>
