<svg width="749" height="161" viewBox="0 0 749 161" fill="none" xmlns="http://www.w3.org/2000/svg">
<path d="M66.8949 160.707C57.0426 160.707 48.0677 159.089 39.9699 155.852C31.8722 152.616 24.9217 147.896 19.1183 141.693C13.3149 135.49 8.79371 127.871 5.55463 118.836C2.4505 109.666 0.898438 99.2153 0.898438 87.4833C0.898438 75.7513 2.65294 65.3678 6.16196 56.3328C9.80593 47.163 14.6646 39.4765 20.7379 33.2734C26.8111 27.0703 33.8966 22.3505 41.9944 19.1141C50.0921 15.8777 58.7297 14.2595 67.9071 14.2595C73.7104 14.2595 78.9065 14.664 83.4952 15.4732C88.2189 16.2823 92.2677 17.2262 95.6418 18.305C99.1508 19.3838 101.985 20.4626 104.144 21.5414C106.304 22.6202 107.788 23.4293 108.598 23.9687L102.93 40.1508C101.715 39.3417 99.9606 38.4651 97.6662 37.5212C95.3718 36.5772 92.7401 35.6333 89.7709 34.6893C86.9367 33.7454 83.7651 33.0037 80.2561 32.4643C76.882 31.7901 73.4405 31.4529 69.9315 31.4529C62.5086 31.4529 55.828 32.734 49.8896 35.2962C43.9513 37.8583 38.8902 41.5667 34.7064 46.4213C30.5226 51.2759 27.2835 57.2094 24.9892 64.2216C22.8298 71.0989 21.7501 78.8528 21.7501 87.4833C21.7501 95.844 22.6948 103.463 24.5843 110.34C26.6087 117.218 29.5779 123.151 33.4918 128.141C37.4057 132.995 42.2643 136.771 48.0677 139.468C54.006 142.165 60.8891 143.514 68.7168 143.514C77.7593 143.514 85.2497 142.57 91.188 140.682C97.1264 138.794 101.58 137.108 104.549 135.625L109.61 151.807C108.666 152.481 106.979 153.358 104.549 154.437C102.12 155.38 99.0833 156.324 95.4393 157.268C91.7954 158.212 87.544 159.021 82.6854 159.696C77.8268 160.37 72.5633 160.707 66.8949 160.707Z" fill="#62748E"/>
<path d="M166.521 144.12C170.974 144.12 174.888 144.053 178.262 143.918C181.771 143.648 184.673 143.244 186.967 142.705V111.352C185.618 110.678 183.391 110.138 180.287 109.734C177.317 109.194 173.674 108.924 169.355 108.924C166.521 108.924 163.484 109.127 160.245 109.531C157.141 109.936 154.239 110.812 151.54 112.161C148.975 113.375 146.816 115.128 145.062 117.42C143.307 119.578 142.43 122.477 142.43 126.118C142.43 132.86 144.589 137.58 148.908 140.277C153.227 142.839 159.098 144.12 166.521 144.12ZM164.901 49.86C172.459 49.86 178.802 50.8714 183.931 52.8941C189.194 54.782 193.378 57.5465 196.482 61.1874C199.721 64.6935 202.016 68.9413 203.365 73.9308C204.715 78.7854 205.39 84.1794 205.39 90.1128V155.852C203.77 156.122 201.476 156.527 198.507 157.066C195.672 157.471 192.433 157.875 188.789 158.28C185.145 158.684 181.164 159.021 176.845 159.291C172.661 159.696 168.477 159.898 164.294 159.898C158.355 159.898 152.889 159.291 147.896 158.077C142.902 156.864 138.583 154.976 134.939 152.414C131.295 149.717 128.461 146.211 126.437 141.895C124.412 137.58 123.4 132.388 123.4 126.32C123.4 120.522 124.547 115.532 126.842 111.352C129.271 107.171 132.51 103.8 136.559 101.238C140.608 98.6759 145.332 96.7879 150.73 95.5743C156.128 94.3606 161.797 93.7538 167.735 93.7538C169.625 93.7538 171.582 93.8887 173.606 94.1584C175.63 94.2932 177.52 94.5629 179.274 94.9675C181.164 95.2372 182.783 95.5069 184.133 95.7766C185.483 96.0463 186.427 96.2485 186.967 96.3834V91.1242C186.967 88.0227 186.63 84.9885 185.955 82.0218C185.28 78.9203 184.066 76.2233 182.311 73.9308C180.557 71.5035 178.127 69.6156 175.023 68.2671C172.054 66.7837 168.14 66.0421 163.281 66.0421C157.073 66.0421 151.607 66.514 146.884 67.458C142.295 68.2671 138.853 69.1436 136.559 70.0876L134.332 54.5123C136.761 53.4335 140.81 52.4222 146.479 51.4782C152.147 50.3994 158.288 49.86 164.901 49.86Z" fill="#62748E"/>
<path d="M275.528 50.2646C277.148 50.2646 278.97 50.3994 280.994 50.6691C283.154 50.804 285.245 51.0737 287.27 51.4782C289.294 51.7479 291.116 52.085 292.736 52.4896C294.49 52.7593 295.772 53.029 296.582 53.2987L293.343 69.683C291.859 69.1436 289.362 68.5368 285.853 67.8625C282.479 67.0534 278.092 66.6489 272.694 66.6489C269.185 66.6489 265.676 67.0534 262.167 67.8625C258.793 68.5368 256.566 69.0088 255.486 69.2785V157.673H236.659V56.9396C241.113 55.3214 246.646 53.8381 253.259 52.4896C259.873 51.0062 267.296 50.2646 275.528 50.2646Z" fill="#62748E"/>
<path d="M314.75 55.5237C319.069 54.4449 324.805 53.2987 331.958 52.085C339.111 50.8714 347.343 50.2646 356.656 50.2646C365.023 50.2646 371.974 51.4782 377.507 53.9055C383.041 56.198 387.427 59.5018 390.666 63.817C394.04 67.9974 396.402 73.0543 397.752 78.9877C399.101 84.9211 399.776 91.4614 399.776 98.6084V157.673H380.949V102.654C380.949 96.1811 380.476 90.6523 379.532 86.0673C378.722 81.4824 377.305 77.774 375.28 74.9422C373.256 72.1103 370.557 70.0876 367.183 68.8739C363.809 67.5254 359.625 66.8512 354.631 66.8512C352.607 66.8512 350.515 66.9186 348.355 67.0534C346.196 67.1883 344.104 67.3906 342.08 67.6603C340.19 67.7951 338.436 67.9974 336.816 68.2671C335.332 68.5368 334.252 68.7391 333.577 68.8739V157.673H314.75V55.5237Z" fill="#62748E"/>
<path d="M466.626 144.12C471.08 144.12 474.994 144.053 478.368 143.918C481.877 143.648 484.779 143.244 487.073 142.705V111.352C485.724 110.678 483.497 110.138 480.393 109.734C477.423 109.194 473.779 108.924 469.461 108.924C466.626 108.924 463.59 109.127 460.351 109.531C457.247 109.936 454.345 110.812 451.646 112.161C449.081 113.375 446.922 115.128 445.168 117.42C443.413 119.578 442.536 122.477 442.536 126.118C442.536 132.86 444.695 137.58 449.014 140.277C453.333 142.839 459.204 144.12 466.626 144.12ZM465.007 49.86C472.565 49.86 478.908 50.8714 484.037 52.8941C489.3 54.782 493.484 57.5465 496.588 61.1874C499.827 64.6935 502.122 68.9413 503.471 73.9308C504.821 78.7854 505.496 84.1794 505.496 90.1128V155.852C503.876 156.122 501.582 156.527 498.612 157.066C495.778 157.471 492.539 157.875 488.895 158.28C485.251 158.684 481.27 159.021 476.951 159.291C472.767 159.696 468.583 159.898 464.4 159.898C458.461 159.898 452.995 159.291 448.002 158.077C443.008 156.864 438.689 154.976 435.045 152.414C431.401 149.717 428.567 146.211 426.543 141.895C424.518 137.58 423.506 132.388 423.506 126.32C423.506 120.522 424.653 115.532 426.948 111.352C429.377 107.171 432.616 103.8 436.665 101.238C440.714 98.6759 445.437 96.7879 450.836 95.5743C456.234 94.3606 461.903 93.7538 467.841 93.7538C469.731 93.7538 471.688 93.8887 473.712 94.1584C475.736 94.2932 477.626 94.5629 479.38 94.9675C481.27 95.2372 482.889 95.5069 484.239 95.7766C485.589 96.0463 486.533 96.2485 487.073 96.3834V91.1242C487.073 88.0227 486.736 84.9885 486.061 82.0218C485.386 78.9203 484.172 76.2233 482.417 73.9308C480.663 71.5035 478.233 69.6156 475.129 68.2671C472.16 66.7837 468.246 66.0421 463.387 66.0421C457.179 66.0421 451.713 66.514 446.99 67.458C442.401 68.2671 438.959 69.1436 436.665 70.0876L434.438 54.5123C436.867 53.4335 440.916 52.4222 446.585 51.4782C452.253 50.3994 458.394 49.86 465.007 49.86Z" fill="#62748E"/>
<path d="M555.592 57.1419C557.887 55.6586 561.328 54.1078 565.917 52.4896C570.641 50.8714 576.039 50.0623 582.112 50.0623C589.67 50.0623 596.351 51.4108 602.154 54.1078C608.093 56.8048 613.086 60.5806 617.135 65.4352C621.184 70.2898 624.22 76.0884 626.245 82.8309C628.404 89.5734 629.484 96.9902 629.484 105.081C629.484 113.577 628.202 121.263 625.638 128.141C623.208 134.883 619.699 140.614 615.111 145.334C610.522 150.054 604.988 153.695 598.51 156.257C592.032 158.819 584.744 160.1 576.646 160.1C567.874 160.1 560.114 159.493 553.365 158.28C546.617 157.066 541.084 155.852 536.765 154.639V3.94344L555.592 0.707031V57.1419ZM555.592 141.289C557.482 141.828 560.114 142.367 563.488 142.907C566.997 143.311 571.315 143.514 576.444 143.514C586.566 143.514 594.664 140.21 600.737 133.602C606.81 126.86 609.847 117.353 609.847 105.081C609.847 99.6872 609.307 94.6303 608.227 89.9106C607.148 85.1908 605.393 81.1453 602.964 77.774C600.535 74.2679 597.363 71.5709 593.449 69.683C589.67 67.6603 585.081 66.6489 579.683 66.6489C574.554 66.6489 569.831 67.5254 565.512 69.2785C561.193 71.0315 557.887 72.852 555.592 74.7399V141.289Z" fill="#62748E"/>
<path d="M748.898 105.081C748.898 113.442 747.684 120.994 745.255 127.736C742.825 134.479 739.384 140.277 734.93 145.132C730.611 149.986 725.415 153.762 719.342 156.459C713.269 159.021 706.655 160.302 699.502 160.302C692.349 160.302 685.736 159.021 679.663 156.459C673.59 153.762 668.326 149.986 663.872 145.132C659.554 140.277 656.18 134.479 653.75 127.736C651.321 120.994 650.106 113.442 650.106 105.081C650.106 96.8554 651.321 89.3712 653.75 82.6287C656.18 75.7513 659.554 69.8853 663.872 65.0307C668.326 60.1761 673.59 56.4677 679.663 53.9055C685.736 51.2085 692.349 49.86 699.502 49.86C706.655 49.86 713.269 51.2085 719.342 53.9055C725.415 56.4677 730.611 60.1761 734.93 65.0307C739.384 69.8853 742.825 75.7513 745.255 82.6287C747.684 89.3712 748.898 96.8554 748.898 105.081ZM729.262 105.081C729.262 93.2144 726.562 83.8423 721.164 76.9649C715.9 69.9527 708.68 66.4466 699.502 66.4466C690.325 66.4466 683.037 69.9527 677.639 76.9649C672.375 83.8423 669.743 93.2144 669.743 105.081C669.743 116.948 672.375 126.388 677.639 133.4C683.037 140.277 690.325 143.716 699.502 143.716C708.68 143.716 715.9 140.277 721.164 133.4C726.562 126.388 729.262 116.948 729.262 105.081Z" fill="#62748E"/>
</svg>
