<svg width="823" height="161" viewBox="0 0 823 161" fill="none" xmlns="http://www.w3.org/2000/svg">
<path d="M72.0096 0.707031L125.343 54.0404L72.0096 107.374H107.565L160.899 54.0404L107.565 0.707031H72.0096Z" fill="#62748E"/>
<path d="M0.898444 54.0404L54.2318 107.374L0.898438 160.707L0.898444 54.0404Z" fill="#62748E"/>
<path d="M226.625 67.1957V55.8891H258.199C261.968 55.8891 264.954 54.8935 267.159 52.9024C269.363 50.8402 270.465 47.9957 270.465 44.3691C270.465 40.6002 269.363 37.7202 267.159 35.7291C264.954 33.738 261.968 32.7424 258.199 32.7424H228.332V89.5958H214.145V20.5824H256.919C260.759 20.5824 264.35 21.0446 267.692 21.9691C271.105 22.8935 274.056 24.3157 276.545 26.2357C279.105 28.1557 281.096 30.6091 282.519 33.5957C283.941 36.5824 284.652 40.1735 284.652 44.3691C284.652 48.4935 283.941 52.0135 282.519 54.9291C281.096 57.8446 279.105 60.2269 276.545 62.0758C274.056 63.8535 271.105 65.1691 267.692 66.0224C264.35 66.8046 260.759 67.1957 256.919 67.1957H226.625Z" fill="#62748E"/>
<path d="M298.004 89.5958V20.5824H344.831C350.165 20.5824 354.787 21.3291 358.698 22.8224C362.68 24.2446 365.773 26.5202 367.978 29.6491C370.182 32.7069 371.285 36.6535 371.285 41.4891C371.285 44.7602 370.716 47.5335 369.578 49.8091C368.44 52.0846 366.84 53.9335 364.778 55.3557C362.787 56.778 360.476 57.8802 357.845 58.6624C355.213 59.3735 352.405 59.8358 349.418 60.0491L347.925 59.1957C352.902 59.2669 356.991 59.6935 360.191 60.4757C363.391 61.1869 365.773 62.538 367.338 64.5291C368.973 66.4491 369.791 69.3291 369.791 73.1691V89.5958H355.605V74.1291C355.605 71.498 355.142 69.4713 354.218 68.0491C353.293 66.5558 351.622 65.5246 349.205 64.9557C346.858 64.3869 343.445 64.1024 338.965 64.1024H312.191V89.5958H298.004ZM312.191 53.0091H344.831C348.813 53.0091 351.836 52.0491 353.898 50.1291C356.031 48.2091 357.098 45.6135 357.098 42.3424C357.098 39.2135 356.031 36.8313 353.898 35.1957C351.836 33.5602 348.813 32.7424 344.831 32.7424H312.191V53.0091Z" fill="#62748E"/>
<path d="M427.196 90.9824C418.023 90.9824 410.165 89.5602 403.623 86.7158C397.152 83.8002 392.174 79.6757 388.69 74.3424C385.276 69.0091 383.57 62.6091 383.57 55.1424C383.57 47.6046 385.276 41.1691 388.69 35.8357C392.174 30.5024 397.152 26.4135 403.623 23.5691C410.165 20.6535 418.023 19.1957 427.196 19.1957C436.441 19.1957 444.299 20.6535 450.77 23.5691C457.241 26.4135 462.183 30.5024 465.596 35.8357C469.081 41.1691 470.823 47.6046 470.823 55.1424C470.823 62.6091 469.081 69.0091 465.596 74.3424C462.183 79.6757 457.241 83.8002 450.77 86.7158C444.299 89.5602 436.441 90.9824 427.196 90.9824ZM427.196 78.7157C432.885 78.7157 437.863 77.8624 442.13 76.1557C446.467 74.4491 449.845 71.8535 452.263 68.3691C454.752 64.8846 455.996 60.4757 455.996 55.1424C455.996 49.8091 454.752 45.4002 452.263 41.9157C449.845 38.4313 446.467 35.8357 442.13 34.1291C437.863 32.3513 432.885 31.4624 427.196 31.4624C421.579 31.4624 416.565 32.3513 412.156 34.1291C407.747 35.8357 404.299 38.4313 401.81 41.9157C399.321 45.4002 398.076 49.8091 398.076 55.1424C398.076 60.4757 399.321 64.8846 401.81 68.3691C404.299 71.8535 407.747 74.4491 412.156 76.1557C416.565 77.8624 421.579 78.7157 427.196 78.7157Z" fill="#62748E"/>
<path d="M565.205 64.7424C564.565 70.2891 562.609 75.018 559.338 78.9291C556.067 82.8402 551.623 85.8269 546.005 87.8891C540.387 89.9513 533.703 90.9824 525.951 90.9824C519.48 90.9824 513.543 90.2358 508.138 88.7424C502.805 87.2491 498.183 85.0091 494.271 82.0224C490.431 79.0357 487.445 75.338 485.311 70.9291C483.178 66.4491 482.111 61.2224 482.111 55.2491C482.111 49.2757 483.178 44.0491 485.311 39.5691C487.445 35.0891 490.431 31.3557 494.271 28.3691C498.183 25.3113 502.805 23.0357 508.138 21.5424C513.543 19.978 519.48 19.1957 525.951 19.1957C533.703 19.1957 540.387 20.2624 546.005 22.3957C551.694 24.5291 556.174 27.5869 559.445 31.5691C562.716 35.4802 564.636 40.2446 565.205 45.8624H551.125C550.2 42.8757 548.636 40.3157 546.431 38.1824C544.298 35.978 541.525 34.3069 538.111 33.1691C534.698 32.0313 530.645 31.4624 525.951 31.4624C520.12 31.4624 515 32.3869 510.591 34.2357C506.183 36.0135 502.769 38.6802 500.351 42.2357C497.934 45.7202 496.725 50.058 496.725 55.2491C496.725 60.3691 497.934 64.6713 500.351 68.1557C502.769 71.6402 506.183 74.3069 510.591 76.1557C515 77.9335 520.12 78.8224 525.951 78.8224C530.645 78.8224 534.663 78.2535 538.005 77.1158C541.418 75.978 544.191 74.3424 546.325 72.2091C548.529 70.0757 550.129 67.5869 551.125 64.7424H565.205Z" fill="#62748E"/>
<path d="M593.233 60.7957V77.7558H646.46V89.5958H579.046V20.5824H646.353V32.4224H593.233V49.5957H636.753V60.7957H593.233Z" fill="#62748E"/>
<path d="M675.212 60.7957V77.7558H728.439V89.5958H661.026V20.5824H728.333V32.4224H675.212V49.5957H718.732V60.7957H675.212Z" fill="#62748E"/>
<path d="M782.472 20.5824C790.223 20.5824 796.694 21.5069 801.885 23.3557C807.076 25.2046 811.201 27.7291 814.258 30.9291C817.387 34.058 819.592 37.6846 820.872 41.8091C822.223 45.9335 822.898 50.2713 822.898 54.8224C822.898 59.3735 822.152 63.7469 820.658 67.9424C819.236 72.138 816.925 75.8713 813.725 79.1424C810.596 82.3424 806.436 84.9024 801.245 86.8224C796.125 88.6713 789.867 89.5958 782.472 89.5958H743.005V20.5824H782.472ZM757.192 77.4358H782.152C787.272 77.4358 791.503 76.8313 794.845 75.6224C798.258 74.3424 800.961 72.6357 802.952 70.5024C804.943 68.3691 806.365 65.9513 807.218 63.2491C808.072 60.5469 808.498 57.738 808.498 54.8224C808.498 51.9069 808.072 49.1335 807.218 46.5024C806.365 43.8713 804.943 41.5246 802.952 39.4624C800.961 37.4002 798.258 35.7646 794.845 34.5557C791.503 33.3469 787.272 32.7424 782.152 32.7424H757.192V77.4358Z" fill="#62748E"/>
<path d="M241.059 148.298H237.699L257.539 117.312H264.632V151.818H257.539V126.752L259.245 127.232L243.405 151.818H235.459L219.619 127.338L221.325 126.858V151.818H214.232V117.312H221.325L241.059 148.298Z" fill="#62748E"/>
<path d="M279.919 137.418V145.898H306.533V151.818H272.826V117.312H306.479V123.232H279.919V131.818H301.679V137.418H279.919Z" fill="#62748E"/>
<path d="M333.549 117.312C337.424 117.312 340.66 117.774 343.256 118.698C345.851 119.623 347.913 120.885 349.442 122.485C351.007 124.049 352.109 125.863 352.749 127.925C353.424 129.987 353.762 132.156 353.762 134.432C353.762 136.707 353.389 138.894 352.642 140.992C351.931 143.089 350.776 144.956 349.176 146.592C347.611 148.192 345.531 149.472 342.936 150.432C340.376 151.356 337.247 151.818 333.549 151.818H313.815V117.312H333.549ZM320.909 145.738H333.389C335.949 145.738 338.064 145.436 339.736 144.832C341.442 144.192 342.793 143.338 343.789 142.272C344.784 141.205 345.496 139.996 345.922 138.645C346.349 137.294 346.562 135.889 346.562 134.432C346.562 132.974 346.349 131.587 345.922 130.272C345.496 128.956 344.784 127.783 343.789 126.752C342.793 125.721 341.442 124.903 339.736 124.298C338.064 123.694 335.949 123.392 333.389 123.392H320.909V145.738Z" fill="#62748E"/>
<path d="M361.704 117.312H368.797V151.818H361.704V117.312Z" fill="#62748E"/>
<path d="M383.369 144.298V138.378H406.196V144.298H383.369ZM374.782 151.818L390.996 117.312H398.676L415.049 151.818H407.316L393.129 120.725H396.542L382.462 151.818H374.782Z" fill="#62748E"/>
</svg>
