<svg width="956" height="168" viewBox="0 0 956 168" fill="none" xmlns="http://www.w3.org/2000/svg">
<path d="M215.943 58.828C215.943 54.417 216.781 50.2786 218.455 46.4127C220.13 42.5469 222.396 39.1767 225.253 36.3021C228.159 33.378 231.533 31.0733 235.375 29.3882C239.217 27.7031 243.33 26.8606 247.713 26.8606H285.661C291.553 26.8606 296.329 31.6369 296.329 37.5288C296.329 43.4207 291.553 48.197 285.661 48.197H247.713C246.236 48.197 244.857 48.4696 243.576 49.0147C242.295 49.5599 241.162 50.3281 240.177 51.3194C239.241 52.2611 238.502 53.3762 237.961 54.6648C237.419 55.9534 237.148 57.3412 237.148 58.828C237.148 60.3149 237.419 61.7274 237.961 63.0656C238.502 64.3542 239.241 65.4941 240.177 66.4853C241.162 67.427 242.295 68.1704 243.576 68.7156C244.857 69.2608 246.236 69.5334 247.713 69.5334H268.918C273.302 69.5334 277.415 70.376 281.257 72.0611C285.148 73.6966 288.522 75.9764 291.379 78.9006C294.285 81.7752 296.551 85.1702 298.176 89.0856C299.851 92.9514 300.688 97.0898 300.688 101.501C300.688 105.912 299.851 110.05 298.176 113.916C296.551 117.782 294.285 121.177 291.379 124.101C288.522 126.976 285.148 129.256 281.257 130.941C277.415 132.626 273.302 133.468 268.918 133.468H232.522C226.63 133.468 221.854 128.692 221.854 122.8C221.854 116.908 226.63 112.132 232.522 112.132H268.918C270.396 112.132 271.775 111.859 273.056 111.314C274.336 110.769 275.445 110.026 276.38 109.084C277.366 108.093 278.129 106.953 278.671 105.664C279.213 104.375 279.484 102.988 279.484 101.501C279.484 100.014 279.213 98.6263 278.671 97.3376C278.129 96.049 277.366 94.9339 276.38 93.9922C275.445 93.001 274.336 92.2328 273.056 91.6876C271.775 91.1424 270.396 90.8698 268.918 90.8698H247.713C243.33 90.8698 239.217 90.0273 235.375 88.3422C231.533 86.6571 228.159 84.3772 225.253 81.5026C222.396 78.5784 220.13 75.1835 218.455 71.3176C216.781 67.4022 215.943 63.239 215.943 58.828Z" fill="#62748E"/>
<path d="M412.401 123.42C412.401 128.97 407.902 133.468 402.353 133.468C396.803 133.468 392.305 128.97 392.305 123.42V82.9151C392.305 81.5274 392.034 80.214 391.492 78.9749C390.999 77.7359 390.285 76.6455 389.349 75.7039C388.413 74.7622 387.33 74.0435 386.098 73.5479C384.867 73.0027 383.562 72.7301 382.183 72.7301C380.803 72.7301 379.498 73.0027 378.267 73.5479C377.085 74.0435 376.026 74.7622 375.09 75.7039C374.203 76.6455 373.489 77.7359 372.947 78.9749C372.455 80.214 372.208 81.5274 372.208 82.9151V123.383C372.208 128.953 367.693 133.468 362.123 133.468C356.553 133.468 352.038 128.953 352.038 123.383V82.9151C352.038 81.5274 351.767 80.214 351.225 78.9749C350.733 77.7359 350.018 76.6455 349.082 75.7039C348.147 74.7622 347.063 74.0435 345.832 73.5479C344.6 73.0027 343.295 72.7301 341.916 72.7301C340.537 72.7301 339.231 73.0027 338 73.5479C336.818 74.0435 335.759 74.7622 334.823 75.7039C333.936 76.6455 333.222 77.7359 332.68 78.9749C332.188 80.214 331.941 81.5274 331.941 82.9151V123.383C331.941 128.953 327.426 133.468 321.856 133.468C316.286 133.468 311.771 128.953 311.771 123.383V59.0298C311.771 56.1674 314.1 53.847 316.962 53.847C319.807 53.847 322.124 56.1464 322.136 58.9907L322.14 59.8669C322.14 59.8691 322.14 59.8714 322.139 59.8735C322.132 59.8929 322.155 59.9088 322.171 59.8955C324.964 57.5397 328.023 55.7218 331.35 54.4418C334.749 53.1036 338.271 52.4345 341.916 52.4345C345.61 52.4345 349.206 53.1284 352.703 54.5161C354.51 55.2231 356.201 56.1939 357.778 57.4283C360.165 59.2968 363.804 59.2413 366.224 57.4155C367.8 56.226 369.45 55.2596 371.174 54.5161C372.947 53.7727 374.77 53.2523 376.641 52.9549C378.513 52.608 380.36 52.4345 382.183 52.4345C386.369 52.4345 390.285 53.2275 393.93 54.8135C397.624 56.3995 400.826 58.5802 403.535 61.3557C406.293 64.0816 408.461 67.3031 410.037 71.0202C411.613 74.7374 412.401 78.7024 412.401 82.9151V123.42Z" fill="#62748E"/>
<path d="M503.796 127.114C503.796 130.624 500.951 133.468 497.442 133.468C493.933 133.468 491.088 130.624 491.088 127.114V123.443C491.088 123.095 490.675 122.911 490.414 123.14C488.69 124.653 486.871 126.089 484.956 127.447C482.837 128.933 480.596 130.247 478.232 131.387C475.868 132.477 473.43 133.344 470.917 133.989C468.455 134.633 465.943 134.955 463.381 134.955C457.815 134.955 452.57 134.013 447.644 132.13C442.768 130.247 438.482 127.521 434.788 123.952C431.143 120.334 428.262 115.923 426.144 110.719C424.026 105.515 422.967 99.5927 422.967 92.9514C422.967 86.7562 424.026 81.0813 426.144 75.9269C428.262 70.7229 431.143 66.2623 434.788 62.5452C438.482 58.828 442.768 55.9534 447.644 53.9214C452.57 51.8398 457.815 50.799 463.381 50.799C465.943 50.799 468.479 51.1211 470.991 51.7654C473.503 52.4097 475.942 53.3019 478.306 54.4418C480.67 55.5817 482.911 56.9199 485.029 58.4563C486.948 59.8162 488.75 61.2732 490.437 62.8273C490.684 63.0549 491.088 62.8812 491.088 62.5452V60.2759C491.088 56.7376 493.978 53.8809 497.516 53.9222C500.996 53.963 503.796 56.7956 503.796 60.2759V127.114ZM483.478 92.9514C483.478 90.176 482.936 87.4996 481.852 84.9224C480.818 82.2956 479.39 79.991 477.567 78.0085C475.745 75.9765 473.602 74.3657 471.139 73.1762C468.726 71.9372 466.14 71.3176 463.381 71.3176C460.623 71.3176 458.012 71.7885 455.55 72.7301C453.136 73.6718 451.018 75.0596 449.196 76.8933C447.422 78.7271 446.019 81.007 444.984 83.7329C443.95 86.4092 443.433 89.4821 443.433 92.9514C443.433 96.4208 443.95 99.5184 444.984 102.244C446.019 104.921 447.422 107.176 449.196 109.009C451.018 110.843 453.136 112.231 455.55 113.173C458.012 114.114 460.623 114.585 463.381 114.585C466.14 114.585 468.726 113.99 471.139 112.801C473.602 111.562 475.745 109.951 477.567 107.969C479.39 105.937 480.818 103.632 481.852 101.055C482.936 98.428 483.478 95.7269 483.478 92.9514Z" fill="#62748E"/>
<path d="M539.408 123.383C539.408 128.953 534.893 133.468 529.323 133.468C523.753 133.468 519.238 128.953 519.238 123.383V59.6848C519.238 56.4729 521.863 53.8809 525.075 53.9223C528.229 53.963 530.764 56.531 530.764 59.6848V62.6832C530.764 62.9151 531.04 63.0373 531.214 62.8837C534.354 60.1072 537.899 57.9623 541.846 56.449C545.984 54.8135 550.269 53.9957 554.702 53.9957H562.398C567.982 53.9957 572.508 58.5224 572.508 64.1064C572.508 69.6903 567.982 74.217 562.398 74.217H554.702C552.584 74.217 550.589 74.6135 548.718 75.4065C546.846 76.1995 545.22 77.2898 543.841 78.6776C542.462 80.0653 541.378 81.7009 540.59 83.5842C539.802 85.4676 539.408 87.4748 539.408 89.606V123.383Z" fill="#62748E"/>
<path d="M621.567 133.468C616.691 133.468 612.11 132.551 607.825 130.718C603.54 128.834 599.772 126.282 596.521 123.06C593.319 119.789 590.782 115.998 588.911 111.686C587.088 107.374 586.177 102.765 586.177 97.858V75.4065C586.177 74.7496 585.644 74.217 584.987 74.217H581.263C578.55 74.217 576.35 72.0172 576.35 69.3037V58.909C576.35 56.1955 578.55 53.9957 581.263 53.9957H585.3C585.784 53.9957 586.177 53.6033 586.177 53.1192V32.2252C586.177 26.6757 590.676 22.177 596.225 22.177C601.775 22.177 606.273 26.6757 606.273 32.2252V53.1192C606.273 53.6033 606.666 53.9957 607.15 53.9957H626.751C632.335 53.9957 636.861 58.5224 636.861 64.1064C636.861 69.6903 632.335 74.217 626.751 74.217H607.463C606.806 74.217 606.273 74.7496 606.273 75.4065V97.858C606.273 99.9892 606.667 101.996 607.455 103.88C608.244 105.714 609.327 107.324 610.706 108.712C612.086 110.1 613.711 111.215 615.583 112.058C617.454 112.851 619.449 113.247 621.567 113.247H626.751C632.335 113.247 636.861 117.774 636.861 123.358C636.861 128.942 632.335 133.468 626.751 133.468H621.567Z" fill="#62748E"/>
<path d="M727.443 92.9514C727.443 99.1962 726.384 104.896 724.266 110.05C722.148 115.205 719.267 119.641 715.622 123.358C711.977 127.025 707.692 129.875 702.766 131.907C697.89 133.939 692.644 134.955 687.029 134.955C681.463 134.955 676.217 133.914 671.291 131.833C666.415 129.751 662.13 126.852 658.436 123.135C654.791 119.417 651.909 115.006 649.791 109.902C647.673 104.747 646.614 99.0971 646.614 92.9514V32.2991C646.614 26.7088 651.146 22.177 656.736 22.177C662.327 22.177 666.858 26.7088 666.858 32.2991V58.7451C666.858 58.9426 667.111 59.0308 667.238 58.8794C668.243 57.68 669.421 56.5973 670.774 55.6313C672.35 54.5409 674.025 53.6488 675.798 52.9549C677.621 52.2611 679.493 51.7407 681.414 51.3937C683.335 50.9972 685.206 50.799 687.029 50.799C692.644 50.799 697.89 51.8646 702.766 53.9957C707.692 56.0773 711.977 59.0015 715.622 62.7682C719.267 66.5349 722.148 70.9955 724.266 76.1499C726.384 81.2548 727.443 86.8553 727.443 92.9514ZM707.125 92.9514C707.125 89.8786 706.583 87.0288 705.5 84.402C704.465 81.7256 703.037 79.421 701.214 77.4881C699.392 75.5552 697.249 74.0435 694.787 72.9532C692.373 71.8628 689.787 71.3176 687.029 71.3176C684.27 71.3176 681.66 71.9372 679.197 73.1762C676.783 74.3657 674.665 75.9765 672.843 78.0085C671.02 79.991 669.592 82.2956 668.558 84.9224C667.523 87.4996 667.006 90.176 667.006 92.9514C667.006 96.0243 667.523 98.8741 668.558 101.501C669.592 104.128 671.02 106.407 672.843 108.34C674.665 110.273 676.783 111.81 679.197 112.95C681.66 114.04 684.27 114.585 687.029 114.585C689.787 114.585 692.373 114.04 694.787 112.95C697.249 111.81 699.392 110.273 701.214 108.34C703.037 106.407 704.465 104.128 705.5 101.501C706.583 98.8741 707.125 96.0243 707.125 92.9514Z" fill="#62748E"/>
<path d="M771.691 112.12C770.954 113.014 771.363 114.366 772.513 114.511C773.301 114.56 774.089 114.585 774.877 114.585C776.847 114.585 778.744 114.313 780.566 113.767C782.389 113.222 784.088 112.454 785.664 111.463C787.29 110.422 788.718 109.183 789.949 107.746C791.775 105.626 795.182 104.993 797.15 106.982C798.272 108.118 799.452 109.31 800.441 110.31C800.617 110.488 800.798 110.672 800.984 110.86C804.949 114.869 805.591 121.304 801.328 124.993C798.914 127.124 796.279 128.933 793.422 130.42C790.614 131.907 787.634 133.022 784.482 133.766C781.379 134.559 778.177 134.955 774.877 134.955C769.311 134.955 764.065 133.914 759.14 131.833C754.263 129.751 749.978 126.852 746.284 123.135C742.639 119.417 739.757 115.006 737.639 109.902C735.521 104.747 734.462 99.0971 734.462 92.9514C734.462 86.6571 735.521 80.9079 737.639 75.7039C739.757 70.4999 742.639 66.0641 746.284 62.3965C749.978 58.7289 754.263 55.8791 759.14 53.847C764.065 51.815 769.311 50.799 774.877 50.799C778.177 50.799 781.403 51.1955 784.556 51.9885C787.708 52.7815 790.688 53.9214 793.496 55.4082C796.353 56.8951 799.013 58.7289 801.475 60.9096C805.826 64.6741 805.444 71.1926 801.784 75.6309L771.691 112.12ZM778.758 74.4516C779.623 73.2954 779.121 71.6184 777.685 71.4663C776.798 71.3672 775.862 71.3176 774.877 71.3176C772.119 71.3176 769.508 71.838 767.045 72.8788C764.632 73.8701 762.514 75.3074 760.691 77.1907C758.918 79.0741 757.514 81.3539 756.48 84.0303C755.445 86.657 754.928 89.6308 754.928 92.9514C754.928 93.6949 754.953 94.5374 755.002 95.4791C755.101 96.4208 755.224 97.3872 755.372 98.3784C755.569 99.3201 755.79 100.237 756.037 101.129C756.36 102.299 757.811 102.421 758.539 101.449L778.758 74.4516Z" fill="#62748E"/>
<path d="M838.344 123.383C838.344 128.953 833.828 133.468 828.258 133.468C822.688 133.468 818.173 128.953 818.173 123.383V59.6681C818.173 56.4655 820.791 53.8808 823.994 53.9221C827.151 53.9629 829.684 56.5437 829.666 59.7014L829.649 62.6832C829.669 62.9301 829.965 63.0464 830.151 62.8824C833.291 60.1065 836.835 57.962 840.782 56.449C844.919 54.8135 849.205 53.9957 853.638 53.9957H861.333C866.917 53.9957 871.444 58.5224 871.444 64.1064C871.444 69.6903 866.917 74.217 861.333 74.217H853.638C851.52 74.217 849.525 74.6135 847.653 75.4065C845.781 76.1995 844.156 77.2898 842.777 78.6776C841.397 80.0653 840.314 81.7009 839.526 83.5842C838.738 85.4676 838.344 87.4748 838.344 89.606V123.383Z" fill="#62748E"/>
<path d="M935.649 92.9514C935.649 90.176 935.107 87.4996 934.023 84.9224C932.989 82.2956 931.561 79.991 929.738 78.0085C927.916 75.9765 925.773 74.3657 923.31 73.1762C920.897 71.9372 918.311 71.3176 915.552 71.3176C912.794 71.3176 910.184 71.7885 907.721 72.7301C905.307 73.6718 903.189 75.0596 901.367 76.8933C899.594 78.7271 898.19 81.007 897.155 83.7329C896.121 86.4092 895.604 89.4821 895.604 92.9514C895.604 96.2721 896.121 99.2706 897.155 101.947C898.19 104.574 899.594 106.829 901.367 108.712C903.189 110.595 905.307 112.058 907.721 113.098C910.184 114.09 912.794 114.585 915.552 114.585C918.311 114.585 920.897 113.99 923.31 112.801C925.773 111.562 927.916 109.951 929.738 107.969C931.561 105.937 932.989 103.632 934.023 101.055C935.107 98.428 935.649 95.7269 935.649 92.9514ZM955.967 123.432C955.967 129.033 954.908 134.286 952.79 139.193C950.672 144.099 947.766 148.386 944.072 152.054C940.427 155.722 936.142 158.621 931.216 160.752C926.34 162.883 921.118 163.949 915.552 163.949L915.427 163.947C909.882 163.866 905.43 159.348 905.43 153.803V153.48C905.43 147.995 909.92 143.572 915.405 143.653C918.557 143.653 921.242 143.232 923.458 142.389C925.675 141.596 927.546 140.481 929.073 139.044C930.6 137.656 931.807 136.046 932.694 134.212C932.921 133.766 933.137 133.314 933.342 132.856C933.664 132.134 932.198 131.218 931.511 131.61C930.034 132.403 928.384 133.047 926.561 133.543C924.788 134.088 922.916 134.46 920.946 134.658C919.025 134.856 917.227 134.955 915.552 134.955C909.987 134.955 904.741 133.989 899.815 132.056C894.939 130.123 890.653 127.372 886.959 123.804C883.314 120.186 880.433 115.775 878.315 110.571C876.197 105.367 875.138 99.4936 875.138 92.9514C875.138 86.9544 876.197 81.3787 878.315 76.2243C880.433 71.0698 883.314 66.6092 886.959 62.8425C890.653 59.0758 894.939 56.1269 899.815 53.9957C904.741 51.8646 909.987 50.799 915.552 50.799C918.114 50.799 920.65 51.1211 923.163 51.7654C925.675 52.4097 928.113 53.3019 930.477 54.4418C932.841 55.5817 935.082 56.9199 937.201 58.4563C939.157 59.8435 940.994 61.3317 942.709 62.9209C942.918 63.1139 943.259 62.9672 943.259 62.6832V60.3498C943.259 56.8405 946.104 53.9957 949.613 53.9957C953.122 53.9957 955.967 56.8405 955.967 60.3498V123.432Z" fill="#62748E"/>
<path d="M158.873 91.3454L159.35 91.8075C160.02 92.4573 160.353 93.3862 160.228 94.3115C155.188 131.344 124.034 160.34 85.5686 161.385L84.5678 161.406C80.9972 161.457 77.4783 161.264 74.027 160.843C71.7072 160.56 70.7717 157.801 72.3383 156.067L73.3075 154.995C73.9672 154.264 74.9427 153.909 75.9212 154.013C79.0211 154.345 82.1785 154.475 85.38 154.388C120.411 153.436 148.8 126.979 153.314 93.1892C153.651 90.6594 156.753 89.3982 158.632 91.1247L158.873 91.3454ZM82.3736 6.00871C85.7728 5.95953 89.1252 6.13138 92.417 6.51104C94.7533 6.7805 95.697 9.55994 94.1112 11.2965L93.1231 12.3785C92.4684 13.0954 91.5078 13.4468 90.5418 13.3502C87.596 13.0557 84.5989 12.9439 81.5624 13.0264C42.677 14.0831 11.972 46.5653 13.0265 85.6209C13.2877 95.2916 15.4711 104.454 19.1998 112.751C19.7006 113.866 19.5187 115.176 18.6998 116.083L17.8993 116.969C16.5038 118.514 14.0001 118.2 13.1281 116.309C8.97078 107.297 6.47936 97.3372 6.06215 86.8158L6.02909 85.8114C4.87064 42.9113 38.6029 7.19132 81.3728 6.02898L82.3736 6.00871Z" fill="#62748E"/>
<path d="M147.415 92.0759C148.53 85.5273 156.701 81.5742 162.417 86.4625L162.691 86.7061L162.99 86.9803L163.048 87.0364L163.525 87.4983L163.71 87.6828C165.529 89.5509 166.487 92.165 166.205 94.8513L166.173 95.1208C160.745 135.005 127.196 166.256 85.7321 167.383L85.6901 167.384L84.6893 167.405L84.6542 167.406C80.8102 167.461 77.0192 167.253 73.2996 166.799C65.7755 165.88 63.3204 157.099 67.8864 152.045L68.8557 150.973L69.0446 150.768C70.9674 148.767 73.6518 147.818 76.2952 148.023L76.5596 148.047L77.6253 148.152C80.1182 148.377 82.6513 148.459 85.2166 148.389C117.244 147.519 143.235 123.326 147.367 92.3947L147.415 92.0759ZM158.632 91.1247C156.753 89.3982 153.651 90.6594 153.314 93.1892C148.8 126.979 120.411 153.436 85.38 154.388C82.1785 154.475 79.0211 154.345 75.9212 154.013C74.9427 153.909 73.9672 154.264 73.3075 154.995L72.3383 156.067C70.7717 157.801 71.7072 160.56 74.027 160.843C77.4783 161.264 80.9972 161.457 84.5678 161.406L85.5686 161.385C123.733 160.348 154.701 131.795 160.105 95.1777L160.228 94.3115C160.346 93.4442 160.06 92.5737 159.472 91.9329L159.35 91.8075L158.873 91.3454L158.632 91.1247ZM81.2513 0.0300689L82.2521 0.00979646L82.2873 0.00884445C85.9458 -0.0440636 89.557 0.140911 93.1047 0.550097L93.4567 0.597223C100.651 1.68408 103.013 10.0907 98.7528 15.1027L98.5415 15.3429L97.5538 16.4247C95.697 18.4579 93.0772 19.4686 90.4666 19.3579L89.9449 19.3203C87.2506 19.0509 84.5069 18.9486 81.7249 19.0242C46.4464 19.9831 18.4982 49.2364 19.0065 84.6216L19.0243 85.4594C19.2638 94.3236 21.2636 102.706 24.6725 110.292L24.8018 110.593C26.0361 113.627 25.5869 117.206 23.3789 119.844L23.1525 120.104L22.352 120.991C18.3136 125.461 10.7077 124.881 7.81403 119.101L7.67948 118.823C3.19824 109.108 0.515371 98.3761 0.0663904 87.0534L0.0653061 87.0134L0.0322373 86.009L0.0312588 85.9729L0.00881789 84.8921C-0.64801 39.1793 35.4706 1.27448 81.2094 0.031206L81.2513 0.0300689ZM81.3728 6.02898C38.6029 7.19132 4.87064 42.9113 6.02909 85.8114L6.06215 86.8158C6.47936 97.3372 8.97078 107.297 13.1281 116.309C13.9728 118.141 16.3493 118.493 17.7657 117.109L17.8993 116.969L18.6998 116.083C19.4676 115.233 19.6755 114.028 19.2858 112.962L19.1998 112.751C15.5876 104.714 13.4259 95.8632 13.0569 86.5256L13.0265 85.6209C11.972 46.5653 42.677 14.0831 81.5624 13.0264C84.5989 12.9439 87.596 13.0557 90.5418 13.3502C91.4473 13.4407 92.3485 13.1375 92.9969 12.5086L93.1231 12.3785L94.1112 11.2965C95.6474 9.61426 94.8098 6.95338 92.6321 6.54361L92.417 6.51104C89.1252 6.13138 85.7728 5.95953 82.3736 6.00871L81.3728 6.02898Z" fill="#62748E"/>
<path d="M110.849 45.332C114.315 42.0839 119.729 42.0975 123.179 45.3632L123.517 45.7011L164.478 88.7431L154.336 98.3945L116.979 59.1376L82.5781 94.9189C79.191 98.4417 73.6397 98.6012 70.0576 95.3603L69.7168 95.0361L59.8457 85.1376L21.3887 121.919L11.7129 111.801L53.709 71.6357L54.0469 71.3281C57.4817 68.357 62.6094 68.4179 65.9726 71.4697L66.3027 71.7851L76.0244 81.5341L110.509 45.6669L110.849 45.332Z" fill="#62748E"/>
</svg>
